{
  "accessors": [
    {
      "bufferView": 2,
      "componentType": 5126,
      "count": 6395,
      "max": [
        21.372100830078125,
        52.02190017700195,
        -6.877029895782471
      ],
      "min": [
        -12.218799591064453,
        34.89189910888672,
        -7.954070091247559
      ],
      "type": "VEC3"
    },
    {
      "bufferView": 2,
      "byteOffset": 76740,
      "componentType": 5126,
      "count": 6395,
      "max": [
        1.0,
        1.0,
        1.0
      ],
      "min": [
        -1.0,
        -1.0,
        -1.0
      ],
      "type": "VEC3"
    },
    {
      "bufferView": 1,
      "componentType": 5126,
      "count": 6395,
      "max": [
        62.09939956665039,
        -53.92940139770508
      ],
      "min": [
        57.90060043334961,
        -56.07059860229492
      ],
      "type": "VEC2"
    },
    {
      "bufferView": 0,
      "componentType": 5125,
      "count": 8058,
      "type": "SCALAR"
    },
    {
      "bufferView": 2,
      "byteOffset": 153480,
      "componentType": 5126,
      "count": 6426,
      "max": [
        22.08970069885254,
        52.43220138549805,
        -3.485029935836792
      ],
      "min": [
        -25.307600021362305,
        34.48160171508789,
        -8.171990394592285
      ],
      "type": "VEC3"
    },
    {
      "bufferView": 2,
      "byteOffset": 230592,
      "componentType": 5126,
      "count": 6426,
      "max": [
        1.0,
        1.0,
        1.0
      ],
      "min": [
        -1.0,
        -1.0,
        -1.0
      ],
      "type": "VEC3"
    },
    {
      "bufferView": 1,
      "byteOffset": 51160,
      "componentType": 5126,
      "count": 6426,
      "max": [
        18.962299346923828,
        -19.87809944152832
      ],
      "min": [
        13.037699699401855,
        -22.12190055847168
      ],
      "type": "VEC2"
    },
    {
      "bufferView": 0,
      "byteOffset": 32232,
      "componentType": 5125,
      "count": 7278,
      "type": "SCALAR"
    },
    {
      "bufferView": 2,
      "byteOffset": 307704,
      "componentType": 5126,
      "count": 24349,
      "max": [
        22.089599609375,
        52.43239974975586,
        -0.2781110107898712
      ],
      "min": [
        -28.172000885009766,
        34.48139953613281,
        -8.176389694213867
      ],
      "type": "VEC3"
    },
    {
      "bufferView": 2,
      "byteOffset": 599892,
      "componentType": 5126,
      "count": 24349,
      "max": [
        1.0,
        1.0,
        1.0
      ],
      "min": [
        -1.0,
        -1.0,
        -1.0
      ],
      "type": "VEC3"
    },
    {
      "bufferView": 1,
      "byteOffset": 102568,
      "componentType": 5126,
      "count": 24349,
      "max": [
        41.14139938354492,
        -9.878060340881348
      ],
      "min": [
        34.85860061645508,
        -12.121899604797363
      ],
      "type": "VEC2"
    },
    {
      "bufferView": 0,
      "byteOffset": 61344,
      "componentType": 5125,
      "count": 26298,
      "type": "SCALAR"
    },
    {
      "bufferView": 2,
      "byteOffset": 892080,
      "componentType": 5126,
      "count": 12600,
      "max": [
        24.394399642944336,
        57.84939956665039,
        -0.6962440013885498
      ],
      "min": [
        -8.173150062561035,
        34.750999450683594,
        -8.228650093078613
      ],
      "type": "VEC3"
    },
    {
      "bufferView": 2,
      "byteOffset": 1043280,
      "componentType": 5126,
      "count": 12600,
      "max": [
        1.0,
        1.0,
        1.0
      ],
      "min": [
        -1.0,
        -1.0,
        -1.0
      ],
      "type": "VEC3"
    },
    {
      "bufferView": 1,
      "byteOffset": 297360,
      "componentType": 5126,
      "count": 12600,
      "max": [
        10.035499572753906,
        -5.562920093536377
      ],
      "min": [
        5.964529991149902,
        -8.443650245666504
      ],
      "type": "VEC2"
    },
    {
      "bufferView": 0,
      "byteOffset": 166536,
      "componentType": 5125,
      "count": 15156,
      "type": "SCALAR"
    },
    {
      "bufferView": 2,
      "byteOffset": 1194480,
      "componentType": 5126,
      "count": 24556,
      "max": [
        7.500222206115723,
        7.6323089599609375,
        3.8503124713897705
      ],
      "min": [
        -7.595678329467773,
        -7.463489532470703,
        -0.9769172668457031
      ],
      "type": "VEC3"
    },
    {
      "bufferView": 2,
      "byteOffset": 1489152,
      "componentType": 5126,
      "count": 24556,
      "max": [
        1.0,
        1.0,
        1.0
      ],
      "min": [
        -1.0,
        -1.0,
        -1.0
      ],
      "type": "VEC3"
    },
    {
      "bufferView": 1,
      "byteOffset": 398160,
      "componentType": 5126,
      "count": 24556,
      "max": [
        48.301300048828125,
        -2.757849931716919
      ],
      "min": [
        3.0565099716186523,
        -61.30270004272461
      ],
      "type": "VEC2"
    },
    {
      "bufferView": 0,
      "byteOffset": 227160,
      "componentType": 5125,
      "count": 26898,
      "type": "SCALAR"
    },
    {
      "bufferView": 2,
      "byteOffset": 1783824,
      "componentType": 5126,
      "count": 24710,
      "max": [
        7.632841110229492,
        7.49981689453125,
        0.9841241836547852
      ],
      "min": [
        -7.46301794052124,
        -7.595981597900391,
        -6.369106292724609
      ],
      "type": "VEC3"
    },
    {
      "bufferView": 2,
      "byteOffset": 2080344,
      "componentType": 5126,
      "count": 24710,
      "max": [
        1.0,
        1.0,
        1.0
      ],
      "min": [
        -1.0,
        -1.0,
        -1.0
      ],
      "type": "VEC3"
    },
    {
      "bufferView": 1,
      "byteOffset": 594608,
      "componentType": 5126,
      "count": 24710,
      "max": [
        54.45920181274414,
        -2.0565099716186523
      ],
      "min": [
        25.056499481201172,
        -45.30270004272461
      ],
      "type": "VEC2"
    },
    {
      "bufferView": 0,
      "byteOffset": 334752,
      "componentType": 5125,
      "count": 26898,
      "type": "SCALAR"
    },
    {
      "bufferView": 2,
      "byteOffset": 2376864,
      "componentType": 5126,
      "count": 19395,
      "max": [
        13.844599723815918,
        54.47549819946289,
        -7.314479827880859
      ],
      "min": [
        -0.9690139889717102,
        53.379600524902344,
        -7.51540994644165
      ],
      "type": "VEC3"
    },
    {
      "bufferView": 2,
      "byteOffset": 2609604,
      "componentType": 5126,
      "count": 19395,
      "max": [
        1.0,
        1.0,
        1.0
      ],
      "min": [
        -1.0,
        -1.0,
        -1.0
      ],
      "type": "VEC3"
    },
    {
      "bufferView": 1,
      "byteOffset": 792288,
      "componentType": 5126,
      "count": 19395,
      "max": [
        15.525099754333496,
        1.0
      ],
      "min": [
        0.0,
        -14.545700073242188
      ],
      "type": "VEC2"
    },
    {
      "bufferView": 0,
      "byteOffset": 442344,
      "componentType": 5125,
      "count": 20808,
      "type": "SCALAR"
    },
    {
      "bufferView": 2,
      "byteOffset": 2842344,
      "componentType": 5126,
      "count": 3638,
      "max": [
        18.981000900268555,
        54.52619934082031,
        -7.239789962768555
      ],
      "min": [
        -3.868269920349121,
        35.832801818847656,
        -7.742990016937256
      ],
      "type": "VEC3"
    },
    {
      "bufferView": 2,
      "byteOffset": 2886000,
      "componentType": 5126,
      "count": 3638,
      "max": [
        1.0,
        1.0,
        1.0
      ],
      "min": [
        -1.0,
        -1.0,
        -1.0
      ],
      "type": "VEC3"
    },
    {
      "bufferView": 1,
      "byteOffset": 947448,
      "componentType": 5126,
      "count": 3638,
      "max": [
        31.4281005859375,
        -11.831700325012207
      ],
      "min": [
        28.5718994140625,
        -14.168299674987793
      ],
      "type": "VEC2"
    },
    {
      "bufferView": 0,
      "byteOffset": 525576,
      "componentType": 5125,
      "count": 8406,
      "type": "SCALAR"
    },
    {
      "bufferView": 2,
      "byteOffset": 2929656,
      "componentType": 5126,
      "count": 27396,
      "max": [
        22.088899612426758,
        53.58919906616211,
        -2.4518299102783203
      ],
      "min": [
        -26.14550018310547,
        34.607398986816406,
        -7.634550094604492
      ],
      "type": "VEC3"
    },
    {
      "bufferView": 2,
      "byteOffset": 3258408,
      "componentType": 5126,
      "count": 27396,
      "max": [
        1.0,
        1.0,
        1.0
      ],
      "min": [
        -1.0,
        -1.0,
        -1.0
      ],
      "type": "VEC3"
    },
    {
      "bufferView": 1,
      "byteOffset": 976552,
      "componentType": 5126,
      "count": 27396,
      "max": [
        51.01470184326172,
        -23.813600540161133
      ],
      "min": [
        44.98529815673828,
        -26.186399459838867
      ],
      "type": "VEC2"
    },
    {
      "bufferView": 0,
      "byteOffset": 559200,
      "componentType": 5125,
      "count": 29220,
      "type": "SCALAR"
    },
    {
      "bufferView": 2,
      "byteOffset": 3587160,
      "componentType": 5126,
      "count": 1153,
      "max": [
        20.513700485229492,
        51.82569885253906,
        -0.5427240133285522
      ],
      "min": [
        -26.54669952392578,
        35.077598571777344,
        -8.111350059509277
      ],
      "type": "VEC3"
    },
    {
      "bufferView": 2,
      "byteOffset": 3600996,
      "componentType": 5126,
      "count": 1153,
      "max": [
        1.0,
        1.0,
        1.0
      ],
      "min": [
        -1.0,
        -1.0,
        -1.0
      ],
      "type": "VEC3"
    },
    {
      "bufferView": 1,
      "byteOffset": 1195720,
      "componentType": 5126,
      "count": 1153,
      "max": [
        7.046750068664551,
        -11.953200340270996
      ],
      "min": [
        -1.0467499494552612,
        -24.04669952392578
      ],
      "type": "VEC2"
    },
    {
      "bufferView": 0,
      "byteOffset": 676080,
      "componentType": 5125,
      "count": 1224,
      "type": "SCALAR"
    },
    {
      "bufferView": 2,
      "byteOffset": 3614832,
      "componentType": 5126,
      "count": 26890,
      "max": [
        21.19219970703125,
        51.71149826049805,
        -0.8774049878120422
      ],
      "min": [
        -27.274099349975586,
        35.202301025390625,
        -8.005599975585938
      ],
      "type": "VEC3"
    },
    {
      "bufferView": 2,
      "byteOffset": 3937512,
      "componentType": 5126,
      "count": 26890,
      "max": [
        1.0,
        1.0,
        1.0
      ],
      "min": [
        -1.0,
        -1.0,
        -1.0
      ],
      "type": "VEC3"
    },
    {
      "bufferView": 1,
      "byteOffset": 1204944,
      "componentType": 5126,
      "count": 26890,
      "max": [
        29.02910041809082,
        0.03182860091328621
      ],
      "min": [
        22.97089958190918,
        -2.031830072402954
      ],
      "type": "VEC2"
    },
    {
      "bufferView": 0,
      "byteOffset": 680976,
      "componentType": 5125,
      "count": 29466,
      "type": "SCALAR"
    },
    {
      "bufferView": 2,
      "byteOffset": 4260192,
      "componentType": 5126,
      "count": 23772,
      "max": [
        -6.096869945526123,
        51.534698486328125,
        -0.8774960041046143
      ],
      "min": [
        -27.180099487304688,
        35.37910079956055,
        -8.00570011138916
      ],
      "type": "VEC3"
    },
    {
      "bufferView": 2,
      "byteOffset": 4545456,
      "componentType": 5126,
      "count": 23772,
      "max": [
        1.0,
        1.0,
        1.0
      ],
      "min": [
        -1.0,
        -1.0,
        -1.0
      ],
      "type": "VEC3"
    },
    {
      "bufferView": 1,
      "byteOffset": 1420064,
      "componentType": 5126,
      "count": 23772,
      "max": [
        17.317699432373047,
        2.0097200870513916
      ],
      "min": [
        14.682299613952637,
        -0.009723070077598095
      ],
      "type": "VEC2"
    },
    {
      "bufferView": 0,
      "byteOffset": 798840,
      "componentType": 5125,
      "count": 26478,
      "type": "SCALAR"
    },
    {
      "bufferView": 2,
      "byteOffset": 4830720,
      "componentType": 5126,
      "count": 493,
      "max": [
        16.19969940185547,
        43.72650146484375,
        -6.817969799041748
      ],
      "min": [
        12.022700309753418,
        42.202701568603516,
        -7.961420059204102
      ],
      "type": "VEC3"
    },
    {
      "bufferView": 2,
      "byteOffset": 4836636,
      "componentType": 5126,
      "count": 493,
      "max": [
        1.0,
        1.0,
        1.0
      ],
      "min": [
        -1.0,
        -1.0,
        -1.0
      ],
      "type": "VEC3"
    },
    {
      "bufferView": 1,
      "byteOffset": 1610240,
      "componentType": 5126,
      "count": 493,
      "max": [
        42.080501556396484,
        -22.904800415039063
      ],
      "min": [
        27.922700881958008,
        -43.09519958496094
      ],
      "type": "VEC2"
    },
    {
      "bufferView": 0,
      "byteOffset": 904752,
      "componentType": 5125,
      "count": 600,
      "type": "SCALAR"
    },
    {
      "bufferView": 2,
      "byteOffset": 4842552,
      "componentType": 5126,
      "count": 1744,
      "max": [
        1.5562999248504639,
        0.0,
        0.007110000122338533
      ],
      "min": [
        0.008690000511705875,
        0.0,
        -0.5458900332450867
      ],
      "type": "VEC3"
    },
    {
      "bufferView": 2,
      "byteOffset": 4863480,
      "componentType": 5126,
      "count": 1744,
      "max": [
        0.0,
        1.0,
        -0.0
      ],
      "min": [
        0.0,
        1.0,
        -0.0
      ],
      "type": "VEC3"
    },
    {
      "bufferView": 1,
      "byteOffset": 1614184,
      "componentType": 5126,
      "count": 1744,
      "max": [
        1.0,
        0.0
      ],
      "min": [
        0.0,
        0.0
      ],
      "type": "VEC2"
    },
    {
      "bufferView": 0,
      "byteOffset": 907152,
      "componentType": 5125,
      "count": 5226,
      "type": "SCALAR"
    },
    {
      "bufferView": 3,
      "componentType": 5126,
      "count": 50,
      "max": [
        4.166666507720947
      ],
      "min": [
        2.125
      ],
      "type": "SCALAR"
    },
    {
      "bufferView": 4,
      "componentType": 5126,
      "count": 50,
      "max": [
        0.7069963216781616,
        0.6942827105522156,
        0.7069525122642517,
        0.7069962024688721
      ],
      "min": [
        0.01477045752108097,
        -0.7069525122642517,
        -0.6942828893661499,
        0.014770453795790672
      ],
      "type": "VEC4"
    },
    {
      "bufferView": 3,
      "byteOffset": 200,
      "componentType": 5126,
      "count": 50,
      "max": [
        4.166666507720947
      ],
      "min": [
        2.125
      ],
      "type": "SCALAR"
    },
    {
      "bufferView": 4,
      "byteOffset": 800,
      "componentType": 5126,
      "count": 50,
      "max": [
        0.7069963216781616,
        0.6942827105522156,
        0.7069525122642517,
        0.7069962024688721
      ],
      "min": [
        0.01477045752108097,
        -0.7069525122642517,
        -0.6942828893661499,
        0.014770453795790672
      ],
      "type": "VEC4"
    }
  ],
  "animations": [
    {
      "channels": [
        {
          "sampler": 0,
          "target": {
            "node": 10,
            "path": "rotation"
          }
        },
        {
          "sampler": 1,
          "target": {
            "node": 12,
            "path": "rotation"
          }
        }
      ],
      "name": "Animation",
      "samplers": [
        {
          "input": 56,
          "interpolation": "LINEAR",
          "output": 57
        },
        {
          "input": 58,
          "interpolation": "LINEAR",
          "output": 59
        }
      ]
    }
  ],
  "asset": {
    "extras": {
      "author": "jademean_2 (https://sketchfab.com/jademean_2)",
      "license": "CC-BY-4.0 (http://creativecommons.org/licenses/by/4.0/)",
      "source": "https://sketchfab.com/3d-models/nvidia-ge-force-rtx-4090-f2115fcf3c024c21ba18d223fa5bdd0f",
      "title": "Nvidia Ge Force RTX 4090"
    },
    "generator": "Sketchfab-15.37.0",
    "version": "2.0"
  },
  "bufferViews": [
    {
      "buffer": 0,
      "byteLength": 928056,
      "name": "floatBufferViews",
      "target": 34963
    },
    {
      "buffer": 0,
      "byteLength": 1628136,
      "byteOffset": 928056,
      "byteStride": 8,
      "name": "floatBufferViews",
      "target": 34962
    },
    {
      "buffer": 0,
      "byteLength": 4884408,
      "byteOffset": 2556192,
      "byteStride": 12,
      "name": "floatBufferViews",
      "target": 34962
    },
    {
      "buffer": 0,
      "byteLength": 400,
      "byteOffset": 7440600,
      "name": "floatBufferViews"
    },
    {
      "buffer": 0,
      "byteLength": 1600,
      "byteOffset": 7441000,
      "byteStride": 16,
      "name": "floatBufferViews"
    }
  ],
  "buffers": [
    {
      "byteLength": 7442600,
      "uri": "scene.bin"
    }
  ],
  "materials": [
    {
      "doubleSided": true,
      "name": "material_0",
      "pbrMetallicRoughness": {
        "metallicFactor": 0.0,
        "roughnessFactor": 0.6
      }
    },
    {
      "doubleSided": true,
      "name": "Black1Mtl.002",
      "pbrMetallicRoughness": {
        "baseColorFactor": [
          0.0277553,
          0.0277553,
          0.0277553,
          1.0
        ],
        "metallicFactor": 0.0,
        "roughnessFactor": 0.192661
      }
    },
    {
      "doubleSided": true,
      "name": "Meshpart1Mtl.004",
      "pbrMetallicRoughness": {
        "baseColorFactor": [
          0.851252,
          0.827726,
          0.827726,
          1.0
        ],
        "roughnessFactor": 0.165138
      }
    },
    {
      "doubleSided": true,
      "name": "Bad1Mtl.001",
      "pbrMetallicRoughness": {
        "baseColorFactor": [
          0.373615,
          0.368591,
          0.383775,
          1.0
        ],
        "roughnessFactor": 0.165
      }
    },
    {
      "doubleSided": true,
      "name": "Meshpart1Mtl.005",
      "pbrMetallicRoughness": {
        "baseColorFactor": [
          0.0277553,
          0.0277553,
          0.0277553,
          1.0
        ],
        "roughnessFactor": 0.376147
      }
    },
    {
      "doubleSided": true,
      "name": "Meshpart1Mtl.006",
      "pbrMetallicRoughness": {
        "baseColorFactor": [
          0.031536,
          0.0312022,
          0.0302133,
          1.0
        ],
        "metallicFactor": 0.0
      }
    },
    {
      "doubleSided": true,
      "name": "Meshpart1Mtl.007",
      "pbrMetallicRoughness": {
        "baseColorFactor": [
          0.0315484,
          0.0314369,
          0.0311036,
          1.0
        ],
        "metallicFactor": 0.0
      }
    },
    {
      "doubleSided": true,
      "name": "Part1Mtl",
      "pbrMetallicRoughness": {
        "baseColorFactor": [
          1.0,
          0.442323,
          0.0,
          1.0
        ],
        "metallicFactor": 0.0
      }
    },
    {
      "doubleSided": true,
      "name": "Meshpart1Mtl.008",
      "pbrMetallicRoughness": {
        "baseColorFactor": [
          0.0277553,
          0.0277553,
          0.0277553,
          1.0
        ],
        "metallicFactor": 0.0
      }
    },
    {
      "doubleSided": true,
      "name": "Meshpart1Mtl.009",
      "pbrMetallicRoughness": {
        "baseColorFactor": [
          0.0277553,
          0.0277553,
          0.0277553,
          1.0
        ],
        "metallicFactor": 0.0
      }
    },
    {
      "doubleSided": true,
      "name": "Union1Mtl",
      "pbrMetallicRoughness": {
        "baseColorFactor": [
          0.0277553,
          0.0277553,
          0.0277553,
          1.0
        ],
        "metallicFactor": 0.0
      }
    },
    {
      "doubleSided": true,
      "name": "Meshpart1Mtl.010",
      "pbrMetallicRoughness": {
        "baseColorFactor": [
          0.0277553,
          0.0277553,
          0.0277553,
          1.0
        ],
        "metallicFactor": 0.0
      }
    },
    {
      "doubleSided": true,
      "name": "Meshpart1Mtl.011",
      "pbrMetallicRoughness": {
        "baseColorFactor": [
          0.0277553,
          0.0277553,
          0.0277553,
          1.0
        ],
        "metallicFactor": 0.0
      }
    },
    {
      "doubleSided": true,
      "name": "Uni00581Mtl",
      "pbrMetallicRoughness": {
        "metallicFactor": 0.0
      }
    }
  ],
  "meshes": [
    {
      "name": "Object_0",
      "primitives": [
        {
          "attributes": {
            "NORMAL": 1,
            "POSITION": 0,
            "TEXCOORD_0": 2
          },
          "indices": 3,
          "material": 1,
          "mode": 4
        }
      ]
    },
    {
      "name": "Object_1",
      "primitives": [
        {
          "attributes": {
            "NORMAL": 5,
            "POSITION": 4,
            "TEXCOORD_0": 6
          },
          "indices": 7,
          "material": 2,
          "mode": 4
        }
      ]
    },
    {
      "name": "Object_2",
      "primitives": [
        {
          "attributes": {
            "NORMAL": 9,
            "POSITION": 8,
            "TEXCOORD_0": 10
          },
          "indices": 11,
          "material": 3,
          "mode": 4
        }
      ]
    },
    {
      "name": "Object_3",
      "primitives": [
        {
          "attributes": {
            "NORMAL": 13,
            "POSITION": 12,
            "TEXCOORD_0": 14
          },
          "indices": 15,
          "material": 4,
          "mode": 4
        }
      ]
    },
    {
      "name": "Object_4",
      "primitives": [
        {
          "attributes": {
            "NORMAL": 17,
            "POSITION": 16,
            "TEXCOORD_0": 18
          },
          "indices": 19,
          "material": 5,
          "mode": 4
        }
      ]
    },
    {
      "name": "Object_5",
      "primitives": [
        {
          "attributes": {
            "NORMAL": 21,
            "POSITION": 20,
            "TEXCOORD_0": 22
          },
          "indices": 23,
          "material": 6,
          "mode": 4
        }
      ]
    },
    {
      "name": "Object_6",
      "primitives": [
        {
          "attributes": {
            "NORMAL": 25,
            "POSITION": 24,
            "TEXCOORD_0": 26
          },
          "indices": 27,
          "material": 7,
          "mode": 4
        }
      ]
    },
    {
      "name": "Object_7",
      "primitives": [
        {
          "attributes": {
            "NORMAL": 29,
            "POSITION": 28,
            "TEXCOORD_0": 30
          },
          "indices": 31,
          "material": 8,
          "mode": 4
        }
      ]
    },
    {
      "name": "Object_8",
      "primitives": [
        {
          "attributes": {
            "NORMAL": 33,
            "POSITION": 32,
            "TEXCOORD_0": 34
          },
          "indices": 35,
          "material": 9,
          "mode": 4
        }
      ]
    },
    {
      "name": "Object_9",
      "primitives": [
        {
          "attributes": {
            "NORMAL": 37,
            "POSITION": 36,
            "TEXCOORD_0": 38
          },
          "indices": 39,
          "material": 10,
          "mode": 4
        }
      ]
    },
    {
      "name": "Object_10",
      "primitives": [
        {
          "attributes": {
            "NORMAL": 41,
            "POSITION": 40,
            "TEXCOORD_0": 42
          },
          "indices": 43,
          "material": 11,
          "mode": 4
        }
      ]
    },
    {
      "name": "Object_11",
      "primitives": [
        {
          "attributes": {
            "NORMAL": 45,
            "POSITION": 44,
            "TEXCOORD_0": 46
          },
          "indices": 47,
          "material": 12,
          "mode": 4
        }
      ]
    },
    {
      "name": "Object_12",
      "primitives": [
        {
          "attributes": {
            "NORMAL": 49,
            "POSITION": 48,
            "TEXCOORD_0": 50
          },
          "indices": 51,
          "material": 13,
          "mode": 4
        }
      ]
    },
    {
      "name": "Object_13",
      "primitives": [
        {
          "attributes": {
            "NORMAL": 53,
            "POSITION": 52,
            "TEXCOORD_0": 54
          },
          "indices": 55,
          "material": 0,
          "mode": 4
        }
      ]
    }
  ],
  "nodes": [
    {
      "children": [
        1
      ],
      "matrix": [
        1.0,
        0.0,
        0.0,
        0.0,
        0.0,
        2.220446049250313e-16,
        -1.0,
        0.0,
        0.0,
        1.0,
        2.220446049250313e-16,
        0.0,
        0.0,
        0.0,
        0.0,
        1.0
      ],
      "name": "Sketchfab_model"
    },
    {
      "children": [
        2
      ],
      "name": "root"
    },
    {
      "children": [
        3,
        5,
        8,
        10,
        12,
        14,
        16,
        18,
        20,
        22,
        24,
        26,
        28,
        29
      ],
      "matrix": [
        1.0,
        0.0,
        0.0,
        0.0,
        0.0,
        2.220446049250313e-16,
        1.0,
        0.0,
        0.0,
        -1.0,
        2.220446049250313e-16,
        0.0,
        0.0,
        0.0,
        0.0,
        1.0
      ],
      "name": "GLTF_SceneRootNode"
    },
    {
      "children": [
        4
      ],
      "matrix": [
        1.0,
        0.0,
        0.0,
        0.0,
        0.0,
        -1.685873969314855e-07,
        0.9999999999999858,
        0.0,
        0.0,
        -0.9999999999999858,
        -1.685873969314855e-07,
        0.0,
        0.0,
        0.0,
        0.0,
        1.0
      ],
      "name": "Top Cover_1"
    },
    {
      "mesh": 0,
      "name": "Object_4"
    },
    {
      "children": [
        6,
        7
      ],
      "matrix": [
        1.0,
        0.0,
        0.0,
        0.0,
        0.0,
        -1.685873969314855e-07,
        0.9999999999999858,
        0.0,
        0.0,
        -0.9999999999999858,
        -1.685873969314855e-07,
        0.0,
        0.0,
        0.0,
        0.0,
        1.0
      ],
      "name": "Silver_2"
    },
    {
      "mesh": 1,
      "name": "Object_6"
    },
    {
      "mesh": 2,
      "name": "Object_7"
    },
    {
      "children": [
        9
      ],
      "matrix": [
        1.0,
        0.0,
        0.0,
        0.0,
        0.0,
        -1.685873969314855e-07,
        0.9999999999999858,
        0.0,
        0.0,
        -0.9999999999999858,
        -1.685873969314855e-07,
        0.0,
        0.0,
        0.0,
        0.0,
        1.0
      ],
      "name": "Black Metal_3"
    },
    {
      "mesh": 3,
      "name": "Object_9"
    },
    {
      "children": [
        11
      ],
      "name": "Fan 1_4",
      "rotation": [
        0.7071068286895752,
        0.0,
        0.0,
        0.7071068286895752
      ],
      "translation": [
        -18.124921798706055,
        7.403515338897705,
        43.367191314697266
      ]
    },
    {
      "mesh": 4,
      "name": "Object_11"
    },
    {
      "children": [
        13
      ],
      "name": "Fan 2_5",
      "rotation": [
        0.2699239253997803,
        -0.653560221195221,
        0.6535604596138,
        0.2699238359928131
      ],
      "translation": [
        12.054758071899414,
        0.9841167330741882,
        43.49968338012695
      ]
    },
    {
      "mesh": 5,
      "name": "Object_13"
    },
    {
      "children": [
        15
      ],
      "matrix": [
        1.0,
        0.0,
        0.0,
        0.0,
        0.0,
        -1.685873969314855e-07,
        0.9999999999999858,
        0.0,
        0.0,
        -0.9999999999999858,
        -1.685873969314855e-07,
        0.0,
        0.0,
        0.0,
        0.0,
        1.0
      ],
      "name": "Yellow COnnectors_6"
    },
    {
      "mesh": 6,
      "name": "Object_15"
    },
    {
      "children": [
        17
      ],
      "matrix": [
        1.0,
        0.0,
        0.0,
        0.0,
        0.0,
        -1.685873969314855e-07,
        0.9999999999999858,
        0.0,
        0.0,
        -0.9999999999999858,
        -1.685873969314855e-07,
        0.0,
        0.0,
        0.0,
        0.0,
        1.0
      ],
      "name": "Black Surface_7"
    },
    {
      "mesh": 7,
      "name": "Object_17"
    },
    {
      "children": [
        19
      ],
      "matrix": [
        1.0,
        0.0,
        0.0,
        0.0,
        0.0,
        -1.685873969314855e-07,
        0.9999999999999858,
        0.0,
        0.0,
        -0.9999999999999858,
        -1.685873969314855e-07,
        0.0,
        0.0,
        0.0,
        0.0,
        1.0
      ],
      "name": "BLack Insolation_8"
    },
    {
      "mesh": 8,
      "name": "Object_19"
    },
    {
      "children": [
        21
      ],
      "matrix": [
        1.0,
        0.0,
        0.0,
        0.0,
        0.0,
        -1.685873969314855e-07,
        0.9999999999999858,
        0.0,
        0.0,
        -0.9999999999999858,
        -1.685873969314855e-07,
        0.0,
        0.0,
        0.0,
        0.0,
        1.0
      ],
      "name": "Fan Surroundings_9"
    },
    {
      "mesh": 9,
      "name": "Object_21"
    },
    {
      "children": [
        23
      ],
      "matrix": [
        1.0,
        0.0,
        0.0,
        0.0,
        0.0,
        -1.685873969314855e-07,
        0.9999999999999858,
        0.0,
        0.0,
        -0.9999999999999858,
        -1.685873969314855e-07,
        0.0,
        0.0,
        0.0,
        0.0,
        1.0
      ],
      "name": "Net Type Coolers_10"
    },
    {
      "mesh": 10,
      "name": "Object_23"
    },
    {
      "children": [
        25
      ],
      "matrix": [
        1.0,
        0.0,
        0.0,
        0.0,
        0.0,
        -1.685873969314855e-07,
        0.9999999999999858,
        0.0,
        0.0,
        -0.9999999999999858,
        -1.685873969314855e-07,
        0.0,
        0.0,
        0.0,
        0.0,
        1.0
      ],
      "name": "Net Mesh_11"
    },
    {
      "mesh": 11,
      "name": "Object_25"
    },
    {
      "children": [
        27
      ],
      "matrix": [
        1.0,
        0.0,
        0.0,
        0.0,
        0.0,
        -1.685873969314855e-07,
        0.9999999999999858,
        0.0,
        0.0,
        -0.9999999999999858,
        -1.685873969314855e-07,
        0.0,
        0.0,
        0.0,
        0.0,
        1.0
      ],
      "name": "RTX_12"
    },
    {
      "mesh": 12,
      "name": "Object_27"
    },
    {
      "name": "Text_13",
      "rotation": [
        0.0,
        0.9999991655349731,
        0.0,
        0.0012690580915659666
      ],
      "scale": [
        4.264785289764404,
        3.211249351501465,
        3.211256980895996
      ],
      "translation": [
        11.374696731567383,
        8.179779052734375,
        42.161468505859375
      ]
    },
    {
      "children": [
        30
      ],
      "name": "Text.001_14",
      "rotation": [
        0.0,
        0.9999991655349731,
        0.0,
        0.0012690580915659666
      ],
      "scale": [
        4.264785289764404,
        3.211249351501465,
        3.211256980895996
      ],
      "translation": [
        11.374696731567383,
        8.179779052734375,
        42.161468505859375
      ]
    },
    {
      "mesh": 13,
      "name": "Object_30"
    }
  ],
  "scene": 0,
  "scenes": [
    {
      "name": "Sketchfab_Scene",
      "nodes": [
        0
      ]
    }
  ]
}
