{
  "accessors": [
    {
      "bufferView": 2,
      "componentType": 5126,
      "count": 192,
      "max": [
        1.0,
        2.132448196411133,
        1.0
      ],
      "min": [
        -1.0,
        1.9879809617996216,
        -1.0
      ],
      "type": "VEC3"
    },
    {
      "bufferView": 2,
      "byteOffset": 2304,
      "componentType": 5126,
      "count": 192,
      "max": [
        0.9951865673065186,
        1.0,
        0.9951865673065186
      ],
      "min": [
        -0.9951865673065186,
        -1.0,
        -0.9951865673065186
      ],
      "type": "VEC3"
    },
    {
      "bufferView": 1,
      "componentType": 5126,
      "count": 192,
      "max": [
        0.0,
        1.0
      ],
      "min": [
        0.0,
        1.0
      ],
      "type": "VEC2"
    },
    {
      "bufferView": 0,
      "componentType": 5125,
      "count": 372,
      "type": "SCALAR"
    },
    {
      "bufferView": 2,
      "byteOffset": 4608,
      "componentType": 5126,
      "count": 6141,
      "max": [
        1.1090620756149292,
        0.14719785749912262,
        0.99919193983078
      ],
      "min": [
        -1.0974488258361816,
        -0.2728811800479889,
        -0.99919193983078
      ],
      "type": "VEC3"
    },
    {
      "bufferView": 2,
      "byteOffset": 78300,
      "componentType": 5126,
      "count": 6141,
      "max": [
        0.9999958276748657,
        1.0,
        0.9999622106552124
      ],
      "min": [
        -0.9999942779541016,
        -1.0,
        -0.9999361634254456
      ],
      "type": "VEC3"
    },
    {
      "bufferView": 3,
      "componentType": 5126,
      "count": 6141,
      "max": [
        0.9999997615814209,
        1.0,
        1.0,
        1.0
      ],
      "min": [
        -0.9999997615814209,
        -1.0,
        -1.0,
        -1.0
      ],
      "type": "VEC4"
    },
    {
      "bufferView": 1,
      "byteOffset": 1536,
      "componentType": 5126,
      "count": 6141,
      "max": [
        7.8601179122924805,
        7.16661262512207
      ],
      "min": [
        -6.807324409484863,
        -6.117337226867676
      ],
      "type": "VEC2"
    },
    {
      "bufferView": 1,
      "byteOffset": 50664,
      "componentType": 5126,
      "count": 6141,
      "max": [
        1.0,
        1.0
      ],
      "min": [
        0.0,
        0.0
      ],
      "type": "VEC2"
    },
    {
      "bufferView": 1,
      "byteOffset": 99792,
      "componentType": 5126,
      "count": 6141,
      "max": [
        7.8601179122924805,
        7.16661262512207
      ],
      "min": [
        -6.807324409484863,
        -6.117337226867676
      ],
      "type": "VEC2"
    },
    {
      "bufferView": 1,
      "byteOffset": 148920,
      "componentType": 5126,
      "count": 6141,
      "max": [
        7.8601179122924805,
        7.16661262512207
      ],
      "min": [
        -6.807324409484863,
        -6.117337226867676
      ],
      "type": "VEC2"
    },
    {
      "bufferView": 1,
      "byteOffset": 198048,
      "componentType": 5126,
      "count": 6141,
      "max": [
        7.8601179122924805,
        7.16661262512207
      ],
      "min": [
        -6.807324409484863,
        -6.117337226867676
      ],
      "type": "VEC2"
    },
    {
      "bufferView": 0,
      "byteOffset": 1488,
      "componentType": 5125,
      "count": 14487,
      "type": "SCALAR"
    },
    {
      "bufferView": 2,
      "byteOffset": 151992,
      "componentType": 5126,
      "count": 97,
      "max": [
        1.1413519382476807,
        0.40176454186439514,
        0.3166061043739319
      ],
      "min": [
        0.9481325149536133,
        -0.10655011236667633,
        -0.27544739842414856
      ],
      "type": "VEC3"
    },
    {
      "bufferView": 2,
      "byteOffset": 153156,
      "componentType": 5126,
      "count": 97,
      "max": [
        0.9999988079071045,
        1.0,
        0.9538498520851135
      ],
      "min": [
        -0.7264357209205627,
        -1.0,
        -0.9411523342132568
      ],
      "type": "VEC3"
    },
    {
      "bufferView": 1,
      "byteOffset": 247176,
      "componentType": 5126,
      "count": 97,
      "max": [
        0.0,
        1.0
      ],
      "min": [
        0.0,
        1.0
      ],
      "type": "VEC2"
    },
    {
      "bufferView": 1,
      "byteOffset": 247952,
      "componentType": 5126,
      "count": 97,
      "max": [
        9.128283500671387,
        2.888108730316162
      ],
      "min": [
        -1.4996411800384521,
        -2.530445098876953
      ],
      "type": "VEC2"
    },
    {
      "bufferView": 0,
      "byteOffset": 59436,
      "componentType": 5125,
      "count": 240,
      "type": "SCALAR"
    },
    {
      "bufferView": 2,
      "byteOffset": 154320,
      "componentType": 5126,
      "count": 33,
      "max": [
        0.886716365814209,
        1.6968051195144653,
        0.8649879097938538
      ],
      "min": [
        -0.869778037071228,
        1.696804404258728,
        -0.8915064930915833
      ],
      "type": "VEC3"
    },
    {
      "bufferView": 2,
      "byteOffset": 154716,
      "componentType": 5126,
      "count": 33,
      "max": [
        0.0,
        1.0,
        0.0
      ],
      "min": [
        0.0,
        1.0,
        0.0
      ],
      "type": "VEC3"
    },
    {
      "bufferView": 1,
      "byteOffset": 248728,
      "componentType": 5126,
      "count": 33,
      "max": [
        0.0,
        1.0
      ],
      "min": [
        0.0,
        1.0
      ],
      "type": "VEC2"
    },
    {
      "bufferView": 0,
      "byteOffset": 60396,
      "componentType": 5125,
      "count": 93,
      "type": "SCALAR"
    },
    {
      "bufferView": 2,
      "byteOffset": 155112,
      "componentType": 5126,
      "count": 240,
      "max": [
        3.5370752811431885,
        0.9206653237342834,
        3.5368494987487793
      ],
      "min": [
        -3.417956829071045,
        -0.5568676590919495,
        -3.5210397243499756
      ],
      "type": "VEC3"
    },
    {
      "bufferView": 2,
      "byteOffset": 157992,
      "componentType": 5126,
      "count": 240,
      "max": [
        0.985155463218689,
        0.9738338589668274,
        0.9676445126533508
      ],
      "min": [
        -0.9988437294960022,
        -0.8913146257400513,
        -0.9758739471435547
      ],
      "type": "VEC3"
    },
    {
      "bufferView": 1,
      "byteOffset": 248992,
      "componentType": 5126,
      "count": 240,
      "max": [
        0.0,
        1.0
      ],
      "min": [
        0.0,
        1.0
      ],
      "type": "VEC2"
    },
    {
      "bufferView": 0,
      "byteOffset": 60768,
      "componentType": 5125,
      "count": 1290,
      "type": "SCALAR"
    },
    {
      "bufferView": 2,
      "byteOffset": 160872,
      "componentType": 5126,
      "count": 3840,
      "max": [
        1.9347453117370605,
        -2.5739853382110596,
        1.9347347021102905
      ],
      "min": [
        -1.934281826019287,
        -5.240309238433838,
        -1.934348702430725
      ],
      "type": "VEC3"
    },
    {
      "bufferView": 2,
      "byteOffset": 206952,
      "componentType": 5126,
      "count": 3840,
      "max": [
        0.9998027086257935,
        0.9991171956062317,
        0.9994632601737976
      ],
      "min": [
        -0.9998027086257935,
        -0.9991177916526794,
        -0.9994632601737976
      ],
      "type": "VEC3"
    },
    {
      "bufferView": 1,
      "byteOffset": 250912,
      "componentType": 5126,
      "count": 3840,
      "max": [
        1.0,
        1.0
      ],
      "min": [
        0.0,
        0.0
      ],
      "type": "VEC2"
    },
    {
      "bufferView": 0,
      "byteOffset": 65928,
      "componentType": 5125,
      "count": 5760,
      "type": "SCALAR"
    },
    {
      "bufferView": 2,
      "byteOffset": 253032,
      "componentType": 5126,
      "count": 312,
      "max": [
        1.0514702796936035,
        0.7130177617073059,
        1.087393879890442
      ],
      "min": [
        -1.1591413021087646,
        -5.108866214752197,
        -1.1232177019119263
      ],
      "type": "VEC3"
    },
    {
      "bufferView": 2,
      "byteOffset": 256776,
      "componentType": 5126,
      "count": 312,
      "max": [
        0.9963979721069336,
        1.0,
        0.9963979721069336
      ],
      "min": [
        -0.9963979721069336,
        -0.8664963245391846,
        -0.9963979721069336
      ],
      "type": "VEC3"
    },
    {
      "bufferView": 3,
      "byteOffset": 98256,
      "componentType": 5126,
      "count": 312,
      "max": [
        1.0,
        0.9963983297348022,
        1.0,
        1.0
      ],
      "min": [
        -1.0,
        -0.9963983297348022,
        -1.0,
        1.0
      ],
      "type": "VEC4"
    },
    {
      "bufferView": 1,
      "byteOffset": 281632,
      "componentType": 5126,
      "count": 312,
      "max": [
        0.0,
        1.0
      ],
      "min": [
        0.0,
        1.0
      ],
      "type": "VEC2"
    },
    {
      "bufferView": 1,
      "byteOffset": 284128,
      "componentType": 5126,
      "count": 312,
      "max": [
        0.0,
        1.0
      ],
      "min": [
        0.0,
        1.0
      ],
      "type": "VEC2"
    },
    {
      "bufferView": 1,
      "byteOffset": 286624,
      "componentType": 5126,
      "count": 312,
      "max": [
        0.0,
        1.0
      ],
      "min": [
        0.0,
        1.0
      ],
      "type": "VEC2"
    },
    {
      "bufferView": 1,
      "byteOffset": 289120,
      "componentType": 5126,
      "count": 312,
      "max": [
        0.0,
        1.0
      ],
      "min": [
        0.0,
        1.0
      ],
      "type": "VEC2"
    },
    {
      "bufferView": 0,
      "byteOffset": 88968,
      "componentType": 5125,
      "count": 1860,
      "type": "SCALAR"
    },
    {
      "bufferView": 2,
      "byteOffset": 260520,
      "componentType": 5126,
      "count": 3840,
      "max": [
        1.9347453117370605,
        -2.5739853382110596,
        1.9347347021102905
      ],
      "min": [
        -1.934281826019287,
        -5.240309238433838,
        -1.934348702430725
      ],
      "type": "VEC3"
    },
    {
      "bufferView": 2,
      "byteOffset": 306600,
      "componentType": 5126,
      "count": 3840,
      "max": [
        0.9998027086257935,
        0.9991171956062317,
        0.9994632601737976
      ],
      "min": [
        -0.9998027086257935,
        -0.9991177916526794,
        -0.9994632601737976
      ],
      "type": "VEC3"
    },
    {
      "bufferView": 1,
      "byteOffset": 291616,
      "componentType": 5126,
      "count": 3840,
      "max": [
        1.0,
        1.0
      ],
      "min": [
        0.0,
        0.0
      ],
      "type": "VEC2"
    },
    {
      "bufferView": 0,
      "byteOffset": 96408,
      "componentType": 5125,
      "count": 5760,
      "type": "SCALAR"
    },
    {
      "bufferView": 2,
      "byteOffset": 352680,
      "componentType": 5126,
      "count": 312,
      "max": [
        1.0514702796936035,
        0.7130177617073059,
        1.087393879890442
      ],
      "min": [
        -1.1591413021087646,
        -5.108866214752197,
        -1.1232177019119263
      ],
      "type": "VEC3"
    },
    {
      "bufferView": 2,
      "byteOffset": 356424,
      "componentType": 5126,
      "count": 312,
      "max": [
        0.9963979721069336,
        1.0,
        0.9963979721069336
      ],
      "min": [
        -0.9963979721069336,
        -0.8664963245391846,
        -0.9963979721069336
      ],
      "type": "VEC3"
    },
    {
      "bufferView": 3,
      "byteOffset": 103248,
      "componentType": 5126,
      "count": 312,
      "max": [
        1.0,
        0.9963983297348022,
        1.0,
        1.0
      ],
      "min": [
        -1.0,
        -0.9963983297348022,
        -1.0,
        1.0
      ],
      "type": "VEC4"
    },
    {
      "bufferView": 1,
      "byteOffset": 322336,
      "componentType": 5126,
      "count": 312,
      "max": [
        0.0,
        1.0
      ],
      "min": [
        0.0,
        1.0
      ],
      "type": "VEC2"
    },
    {
      "bufferView": 1,
      "byteOffset": 324832,
      "componentType": 5126,
      "count": 312,
      "max": [
        0.0,
        1.0
      ],
      "min": [
        0.0,
        1.0
      ],
      "type": "VEC2"
    },
    {
      "bufferView": 1,
      "byteOffset": 327328,
      "componentType": 5126,
      "count": 312,
      "max": [
        0.0,
        1.0
      ],
      "min": [
        0.0,
        1.0
      ],
      "type": "VEC2"
    },
    {
      "bufferView": 1,
      "byteOffset": 329824,
      "componentType": 5126,
      "count": 312,
      "max": [
        0.0,
        1.0
      ],
      "min": [
        0.0,
        1.0
      ],
      "type": "VEC2"
    },
    {
      "bufferView": 0,
      "byteOffset": 119448,
      "componentType": 5125,
      "count": 1860,
      "type": "SCALAR"
    },
    {
      "bufferView": 2,
      "byteOffset": 360168,
      "componentType": 5126,
      "count": 3840,
      "max": [
        1.9347453117370605,
        -2.5739853382110596,
        1.9347347021102905
      ],
      "min": [
        -1.934281826019287,
        -5.240309238433838,
        -1.934348702430725
      ],
      "type": "VEC3"
    },
    {
      "bufferView": 2,
      "byteOffset": 406248,
      "componentType": 5126,
      "count": 3840,
      "max": [
        0.9998027086257935,
        0.9991171956062317,
        0.9994632601737976
      ],
      "min": [
        -0.9998027086257935,
        -0.9991177916526794,
        -0.9994632601737976
      ],
      "type": "VEC3"
    },
    {
      "bufferView": 1,
      "byteOffset": 332320,
      "componentType": 5126,
      "count": 3840,
      "max": [
        1.0,
        1.0
      ],
      "min": [
        0.0,
        0.0
      ],
      "type": "VEC2"
    },
    {
      "bufferView": 0,
      "byteOffset": 126888,
      "componentType": 5125,
      "count": 5760,
      "type": "SCALAR"
    },
    {
      "bufferView": 2,
      "byteOffset": 452328,
      "componentType": 5126,
      "count": 312,
      "max": [
        1.0514702796936035,
        0.7130177617073059,
        1.087393879890442
      ],
      "min": [
        -1.1591413021087646,
        -5.108866214752197,
        -1.1232177019119263
      ],
      "type": "VEC3"
    },
    {
      "bufferView": 2,
      "byteOffset": 456072,
      "componentType": 5126,
      "count": 312,
      "max": [
        0.9963979721069336,
        1.0,
        0.9963979721069336
      ],
      "min": [
        -0.9963979721069336,
        -0.8664963245391846,
        -0.9963979721069336
      ],
      "type": "VEC3"
    },
    {
      "bufferView": 3,
      "byteOffset": 108240,
      "componentType": 5126,
      "count": 312,
      "max": [
        1.0,
        0.9963983297348022,
        1.0,
        1.0
      ],
      "min": [
        -1.0,
        -0.9963983297348022,
        -1.0,
        1.0
      ],
      "type": "VEC4"
    },
    {
      "bufferView": 1,
      "byteOffset": 363040,
      "componentType": 5126,
      "count": 312,
      "max": [
        0.0,
        1.0
      ],
      "min": [
        0.0,
        1.0
      ],
      "type": "VEC2"
    },
    {
      "bufferView": 1,
      "byteOffset": 365536,
      "componentType": 5126,
      "count": 312,
      "max": [
        0.0,
        1.0
      ],
      "min": [
        0.0,
        1.0
      ],
      "type": "VEC2"
    },
    {
      "bufferView": 1,
      "byteOffset": 368032,
      "componentType": 5126,
      "count": 312,
      "max": [
        0.0,
        1.0
      ],
      "min": [
        0.0,
        1.0
      ],
      "type": "VEC2"
    },
    {
      "bufferView": 1,
      "byteOffset": 370528,
      "componentType": 5126,
      "count": 312,
      "max": [
        0.0,
        1.0
      ],
      "min": [
        0.0,
        1.0
      ],
      "type": "VEC2"
    },
    {
      "bufferView": 0,
      "byteOffset": 149928,
      "componentType": 5125,
      "count": 1860,
      "type": "SCALAR"
    },
    {
      "bufferView": 2,
      "byteOffset": 459816,
      "componentType": 5126,
      "count": 3840,
      "max": [
        1.9347453117370605,
        -2.5739853382110596,
        1.9347347021102905
      ],
      "min": [
        -1.934281826019287,
        -5.240309238433838,
        -1.934348702430725
      ],
      "type": "VEC3"
    },
    {
      "bufferView": 2,
      "byteOffset": 505896,
      "componentType": 5126,
      "count": 3840,
      "max": [
        0.9998027086257935,
        0.9991171956062317,
        0.9994632601737976
      ],
      "min": [
        -0.9998027086257935,
        -0.9991177916526794,
        -0.9994632601737976
      ],
      "type": "VEC3"
    },
    {
      "bufferView": 1,
      "byteOffset": 373024,
      "componentType": 5126,
      "count": 3840,
      "max": [
        1.0,
        1.0
      ],
      "min": [
        0.0,
        0.0
      ],
      "type": "VEC2"
    },
    {
      "bufferView": 0,
      "byteOffset": 157368,
      "componentType": 5125,
      "count": 5760,
      "type": "SCALAR"
    },
    {
      "bufferView": 2,
      "byteOffset": 551976,
      "componentType": 5126,
      "count": 312,
      "max": [
        1.0514702796936035,
        0.7130177617073059,
        1.087393879890442
      ],
      "min": [
        -1.1591413021087646,
        -5.108866214752197,
        -1.1232177019119263
      ],
      "type": "VEC3"
    },
    {
      "bufferView": 2,
      "byteOffset": 555720,
      "componentType": 5126,
      "count": 312,
      "max": [
        0.9963979721069336,
        1.0,
        0.9963979721069336
      ],
      "min": [
        -0.9963979721069336,
        -0.8664963245391846,
        -0.9963979721069336
      ],
      "type": "VEC3"
    },
    {
      "bufferView": 3,
      "byteOffset": 113232,
      "componentType": 5126,
      "count": 312,
      "max": [
        1.0,
        0.9963983297348022,
        1.0,
        1.0
      ],
      "min": [
        -1.0,
        -0.9963983297348022,
        -1.0,
        1.0
      ],
      "type": "VEC4"
    },
    {
      "bufferView": 1,
      "byteOffset": 403744,
      "componentType": 5126,
      "count": 312,
      "max": [
        0.0,
        1.0
      ],
      "min": [
        0.0,
        1.0
      ],
      "type": "VEC2"
    },
    {
      "bufferView": 1,
      "byteOffset": 406240,
      "componentType": 5126,
      "count": 312,
      "max": [
        0.0,
        1.0
      ],
      "min": [
        0.0,
        1.0
      ],
      "type": "VEC2"
    },
    {
      "bufferView": 1,
      "byteOffset": 408736,
      "componentType": 5126,
      "count": 312,
      "max": [
        0.0,
        1.0
      ],
      "min": [
        0.0,
        1.0
      ],
      "type": "VEC2"
    },
    {
      "bufferView": 1,
      "byteOffset": 411232,
      "componentType": 5126,
      "count": 312,
      "max": [
        0.0,
        1.0
      ],
      "min": [
        0.0,
        1.0
      ],
      "type": "VEC2"
    },
    {
      "bufferView": 0,
      "byteOffset": 180408,
      "componentType": 5125,
      "count": 1860,
      "type": "SCALAR"
    },
    {
      "bufferView": 2,
      "byteOffset": 559464,
      "componentType": 5126,
      "count": 1274,
      "max": [
        1.1653199195861816,
        7.427438735961914,
        1.1649866104125977
      ],
      "min": [
        -1.1684095859527588,
        0.6658034324645996,
        -1.178810715675354
      ],
      "type": "VEC3"
    },
    {
      "bufferView": 2,
      "byteOffset": 574752,
      "componentType": 5126,
      "count": 1274,
      "max": [
        0.9999942779541016,
        0.9989551305770874,
        0.9999240636825562
      ],
      "min": [
        -0.9999935626983643,
        -0.9996218681335449,
        -0.9999138712882996
      ],
      "type": "VEC3"
    },
    {
      "bufferView": 3,
      "byteOffset": 118224,
      "componentType": 5126,
      "count": 1274,
      "max": [
        0.981027364730835,
        0.654689371585846,
        0.9998904466629028,
        1.0
      ],
      "min": [
        -0.9807402491569519,
        -0.6925910115242004,
        -0.9992268085479736,
        1.0
      ],
      "type": "VEC4"
    },
    {
      "bufferView": 1,
      "byteOffset": 413728,
      "componentType": 5126,
      "count": 1274,
      "max": [
        1.0,
        1.0
      ],
      "min": [
        0.0,
        0.0
      ],
      "type": "VEC2"
    },
    {
      "bufferView": 1,
      "byteOffset": 423920,
      "componentType": 5126,
      "count": 1274,
      "max": [
        1.0,
        1.0
      ],
      "min": [
        0.0,
        0.0
      ],
      "type": "VEC2"
    },
    {
      "bufferView": 1,
      "byteOffset": 434112,
      "componentType": 5126,
      "count": 1274,
      "max": [
        1.0,
        1.0
      ],
      "min": [
        0.0,
        0.0
      ],
      "type": "VEC2"
    },
    {
      "bufferView": 1,
      "byteOffset": 444304,
      "componentType": 5126,
      "count": 1274,
      "max": [
        1.0,
        1.0
      ],
      "min": [
        0.0,
        0.0
      ],
      "type": "VEC2"
    },
    {
      "bufferView": 0,
      "byteOffset": 187848,
      "componentType": 5125,
      "count": 7032,
      "type": "SCALAR"
    },
    {
      "bufferView": 2,
      "byteOffset": 590040,
      "componentType": 5126,
      "count": 438,
      "max": [
        1.6163911819458008,
        6.397638320922852,
        1.6163889169692993
      ],
      "min": [
        -1.6163867712020874,
        0.4083607494831085,
        -1.6163889169692993
      ],
      "type": "VEC3"
    },
    {
      "bufferView": 2,
      "byteOffset": 595296,
      "componentType": 5126,
      "count": 438,
      "max": [
        0.9876296520233154,
        1.0,
        0.9876296520233154
      ],
      "min": [
        -0.9876296520233154,
        -0.9998361468315125,
        -0.9876296520233154
      ],
      "type": "VEC3"
    },
    {
      "bufferView": 3,
      "byteOffset": 138608,
      "componentType": 5126,
      "count": 438,
      "max": [
        1.0,
        0.9876316785812378,
        1.0,
        1.0
      ],
      "min": [
        -1.0,
        -0.9876316785812378,
        -1.0,
        1.0
      ],
      "type": "VEC4"
    },
    {
      "bufferView": 1,
      "byteOffset": 454496,
      "componentType": 5126,
      "count": 438,
      "max": [
        0.0,
        1.0
      ],
      "min": [
        0.0,
        1.0
      ],
      "type": "VEC2"
    },
    {
      "bufferView": 1,
      "byteOffset": 458000,
      "componentType": 5126,
      "count": 438,
      "max": [
        0.0,
        1.0
      ],
      "min": [
        0.0,
        1.0
      ],
      "type": "VEC2"
    },
    {
      "bufferView": 1,
      "byteOffset": 461504,
      "componentType": 5126,
      "count": 438,
      "max": [
        0.0,
        1.0
      ],
      "min": [
        0.0,
        1.0
      ],
      "type": "VEC2"
    },
    {
      "bufferView": 1,
      "byteOffset": 465008,
      "componentType": 5126,
      "count": 438,
      "max": [
        0.0,
        1.0
      ],
      "min": [
        0.0,
        1.0
      ],
      "type": "VEC2"
    },
    {
      "bufferView": 0,
      "byteOffset": 215976,
      "componentType": 5125,
      "count": 2319,
      "type": "SCALAR"
    },
    {
      "bufferView": 2,
      "byteOffset": 600552,
      "componentType": 5126,
      "count": 637,
      "max": [
        1.1653199195861816,
        7.427438735961914,
        1.1649866104125977
      ],
      "min": [
        -1.1684095859527588,
        3.816220998764038,
        -1.178810715675354
      ],
      "type": "VEC3"
    },
    {
      "bufferView": 2,
      "byteOffset": 608196,
      "componentType": 5126,
      "count": 637,
      "max": [
        0.9999942779541016,
        0.998954176902771,
        0.9999240636825562
      ],
      "min": [
        -0.9999935626983643,
        -0.9996218681335449,
        -0.9999138712882996
      ],
      "type": "VEC3"
    },
    {
      "bufferView": 3,
      "byteOffset": 145616,
      "componentType": 5126,
      "count": 637,
      "max": [
        0.981027364730835,
        0.6546310782432556,
        0.9998904466629028,
        1.0
      ],
      "min": [
        -0.9807402491569519,
        -0.6925698518753052,
        -0.9992268085479736,
        1.0
      ],
      "type": "VEC4"
    },
    {
      "bufferView": 1,
      "byteOffset": 468512,
      "componentType": 5126,
      "count": 637,
      "max": [
        1.0,
        1.0
      ],
      "min": [
        0.0,
        0.0
      ],
      "type": "VEC2"
    },
    {
      "bufferView": 1,
      "byteOffset": 473608,
      "componentType": 5126,
      "count": 637,
      "max": [
        1.0,
        1.0
      ],
      "min": [
        0.0,
        0.0
      ],
      "type": "VEC2"
    },
    {
      "bufferView": 1,
      "byteOffset": 478704,
      "componentType": 5126,
      "count": 637,
      "max": [
        1.0,
        1.0
      ],
      "min": [
        0.0,
        0.0
      ],
      "type": "VEC2"
    },
    {
      "bufferView": 1,
      "byteOffset": 483800,
      "componentType": 5126,
      "count": 637,
      "max": [
        1.0,
        1.0
      ],
      "min": [
        0.0,
        0.0
      ],
      "type": "VEC2"
    },
    {
      "bufferView": 0,
      "byteOffset": 225252,
      "componentType": 5125,
      "count": 3516,
      "type": "SCALAR"
    },
    {
      "bufferView": 2,
      "byteOffset": 615840,
      "componentType": 5126,
      "count": 1274,
      "max": [
        1.1653199195861816,
        7.427438735961914,
        1.1649866104125977
      ],
      "min": [
        -1.1684095859527588,
        0.6658034324645996,
        -1.178810715675354
      ],
      "type": "VEC3"
    },
    {
      "bufferView": 2,
      "byteOffset": 631128,
      "componentType": 5126,
      "count": 1274,
      "max": [
        0.9999942779541016,
        0.9989551305770874,
        0.9999240636825562
      ],
      "min": [
        -0.9999935626983643,
        -0.9996218681335449,
        -0.9999138712882996
      ],
      "type": "VEC3"
    },
    {
      "bufferView": 3,
      "byteOffset": 155808,
      "componentType": 5126,
      "count": 1274,
      "max": [
        0.981027364730835,
        0.654689371585846,
        0.9998904466629028,
        1.0
      ],
      "min": [
        -0.9807402491569519,
        -0.6925910115242004,
        -0.9992268085479736,
        1.0
      ],
      "type": "VEC4"
    },
    {
      "bufferView": 1,
      "byteOffset": 488896,
      "componentType": 5126,
      "count": 1274,
      "max": [
        1.0,
        1.0
      ],
      "min": [
        0.0,
        0.0
      ],
      "type": "VEC2"
    },
    {
      "bufferView": 1,
      "byteOffset": 499088,
      "componentType": 5126,
      "count": 1274,
      "max": [
        1.0,
        1.0
      ],
      "min": [
        0.0,
        0.0
      ],
      "type": "VEC2"
    },
    {
      "bufferView": 1,
      "byteOffset": 509280,
      "componentType": 5126,
      "count": 1274,
      "max": [
        1.0,
        1.0
      ],
      "min": [
        0.0,
        0.0
      ],
      "type": "VEC2"
    },
    {
      "bufferView": 1,
      "byteOffset": 519472,
      "componentType": 5126,
      "count": 1274,
      "max": [
        1.0,
        1.0
      ],
      "min": [
        0.0,
        0.0
      ],
      "type": "VEC2"
    },
    {
      "bufferView": 0,
      "byteOffset": 239316,
      "componentType": 5125,
      "count": 7032,
      "type": "SCALAR"
    },
    {
      "bufferView": 2,
      "byteOffset": 646416,
      "componentType": 5126,
      "count": 438,
      "max": [
        1.6163911819458008,
        6.397638320922852,
        1.6163889169692993
      ],
      "min": [
        -1.6163867712020874,
        0.4083607494831085,
        -1.6163889169692993
      ],
      "type": "VEC3"
    },
    {
      "bufferView": 2,
      "byteOffset": 651672,
      "componentType": 5126,
      "count": 438,
      "max": [
        0.9876296520233154,
        1.0,
        0.9876296520233154
      ],
      "min": [
        -0.9876296520233154,
        -0.9998361468315125,
        -0.9876296520233154
      ],
      "type": "VEC3"
    },
    {
      "bufferView": 3,
      "byteOffset": 176192,
      "componentType": 5126,
      "count": 438,
      "max": [
        1.0,
        0.9876316785812378,
        1.0,
        1.0
      ],
      "min": [
        -1.0,
        -0.9876316785812378,
        -1.0,
        1.0
      ],
      "type": "VEC4"
    },
    {
      "bufferView": 1,
      "byteOffset": 529664,
      "componentType": 5126,
      "count": 438,
      "max": [
        0.0,
        1.0
      ],
      "min": [
        0.0,
        1.0
      ],
      "type": "VEC2"
    },
    {
      "bufferView": 1,
      "byteOffset": 533168,
      "componentType": 5126,
      "count": 438,
      "max": [
        0.0,
        1.0
      ],
      "min": [
        0.0,
        1.0
      ],
      "type": "VEC2"
    },
    {
      "bufferView": 1,
      "byteOffset": 536672,
      "componentType": 5126,
      "count": 438,
      "max": [
        0.0,
        1.0
      ],
      "min": [
        0.0,
        1.0
      ],
      "type": "VEC2"
    },
    {
      "bufferView": 1,
      "byteOffset": 540176,
      "componentType": 5126,
      "count": 438,
      "max": [
        0.0,
        1.0
      ],
      "min": [
        0.0,
        1.0
      ],
      "type": "VEC2"
    },
    {
      "bufferView": 0,
      "byteOffset": 267444,
      "componentType": 5125,
      "count": 2319,
      "type": "SCALAR"
    },
    {
      "bufferView": 2,
      "byteOffset": 656928,
      "componentType": 5126,
      "count": 637,
      "max": [
        1.1653199195861816,
        7.427438735961914,
        1.1649866104125977
      ],
      "min": [
        -1.1684095859527588,
        3.816220998764038,
        -1.178810715675354
      ],
      "type": "VEC3"
    },
    {
      "bufferView": 2,
      "byteOffset": 664572,
      "componentType": 5126,
      "count": 637,
      "max": [
        0.9999942779541016,
        0.998954176902771,
        0.9999240636825562
      ],
      "min": [
        -0.9999935626983643,
        -0.9996218681335449,
        -0.9999138712882996
      ],
      "type": "VEC3"
    },
    {
      "bufferView": 3,
      "byteOffset": 183200,
      "componentType": 5126,
      "count": 637,
      "max": [
        0.981027364730835,
        0.6546310782432556,
        0.9998904466629028,
        1.0
      ],
      "min": [
        -0.9807402491569519,
        -0.6925698518753052,
        -0.9992268085479736,
        1.0
      ],
      "type": "VEC4"
    },
    {
      "bufferView": 1,
      "byteOffset": 543680,
      "componentType": 5126,
      "count": 637,
      "max": [
        1.0,
        1.0
      ],
      "min": [
        0.0,
        0.0
      ],
      "type": "VEC2"
    },
    {
      "bufferView": 1,
      "byteOffset": 548776,
      "componentType": 5126,
      "count": 637,
      "max": [
        1.0,
        1.0
      ],
      "min": [
        0.0,
        0.0
      ],
      "type": "VEC2"
    },
    {
      "bufferView": 1,
      "byteOffset": 553872,
      "componentType": 5126,
      "count": 637,
      "max": [
        1.0,
        1.0
      ],
      "min": [
        0.0,
        0.0
      ],
      "type": "VEC2"
    },
    {
      "bufferView": 1,
      "byteOffset": 558968,
      "componentType": 5126,
      "count": 637,
      "max": [
        1.0,
        1.0
      ],
      "min": [
        0.0,
        0.0
      ],
      "type": "VEC2"
    },
    {
      "bufferView": 0,
      "byteOffset": 276720,
      "componentType": 5125,
      "count": 3516,
      "type": "SCALAR"
    },
    {
      "bufferView": 2,
      "byteOffset": 672216,
      "componentType": 5126,
      "count": 1274,
      "max": [
        1.1653199195861816,
        7.427438735961914,
        1.1649866104125977
      ],
      "min": [
        -1.1684095859527588,
        0.6658034324645996,
        -1.178810715675354
      ],
      "type": "VEC3"
    },
    {
      "bufferView": 2,
      "byteOffset": 687504,
      "componentType": 5126,
      "count": 1274,
      "max": [
        0.9999942779541016,
        0.9989551305770874,
        0.9999240636825562
      ],
      "min": [
        -0.9999935626983643,
        -0.9996218681335449,
        -0.9999138712882996
      ],
      "type": "VEC3"
    },
    {
      "bufferView": 3,
      "byteOffset": 193392,
      "componentType": 5126,
      "count": 1274,
      "max": [
        0.981027364730835,
        0.654689371585846,
        0.9998904466629028,
        1.0
      ],
      "min": [
        -0.9807402491569519,
        -0.6925910115242004,
        -0.9992268085479736,
        1.0
      ],
      "type": "VEC4"
    },
    {
      "bufferView": 1,
      "byteOffset": 564064,
      "componentType": 5126,
      "count": 1274,
      "max": [
        1.0,
        1.0
      ],
      "min": [
        0.0,
        0.0
      ],
      "type": "VEC2"
    },
    {
      "bufferView": 1,
      "byteOffset": 574256,
      "componentType": 5126,
      "count": 1274,
      "max": [
        1.0,
        1.0
      ],
      "min": [
        0.0,
        0.0
      ],
      "type": "VEC2"
    },
    {
      "bufferView": 1,
      "byteOffset": 584448,
      "componentType": 5126,
      "count": 1274,
      "max": [
        1.0,
        1.0
      ],
      "min": [
        0.0,
        0.0
      ],
      "type": "VEC2"
    },
    {
      "bufferView": 1,
      "byteOffset": 594640,
      "componentType": 5126,
      "count": 1274,
      "max": [
        1.0,
        1.0
      ],
      "min": [
        0.0,
        0.0
      ],
      "type": "VEC2"
    },
    {
      "bufferView": 0,
      "byteOffset": 290784,
      "componentType": 5125,
      "count": 7032,
      "type": "SCALAR"
    },
    {
      "bufferView": 2,
      "byteOffset": 702792,
      "componentType": 5126,
      "count": 776,
      "max": [
        1.6163911819458008,
        6.397638320922852,
        1.6163889169692993
      ],
      "min": [
        -1.6163867712020874,
        0.4083607494831085,
        -1.6163889169692993
      ],
      "type": "VEC3"
    },
    {
      "bufferView": 2,
      "byteOffset": 712104,
      "componentType": 5126,
      "count": 776,
      "max": [
        0.9876296520233154,
        1.0,
        0.9876296520233154
      ],
      "min": [
        -0.9876296520233154,
        -0.9998361468315125,
        -0.9876296520233154
      ],
      "type": "VEC3"
    },
    {
      "bufferView": 3,
      "byteOffset": 213776,
      "componentType": 5126,
      "count": 776,
      "max": [
        1.0,
        0.7879015803337097,
        0.705310583114624,
        1.0
      ],
      "min": [
        -0.7053106427192688,
        -0.7879016399383545,
        -1.0,
        -1.0
      ],
      "type": "VEC4"
    },
    {
      "bufferView": 1,
      "byteOffset": 604832,
      "componentType": 5126,
      "count": 776,
      "max": [
        5.276013374328613,
        5.576375961303711
      ],
      "min": [
        -7.035704135894775,
        -4.52884578704834
      ],
      "type": "VEC2"
    },
    {
      "bufferView": 1,
      "byteOffset": 611040,
      "componentType": 5126,
      "count": 776,
      "max": [
        0.0,
        1.0
      ],
      "min": [
        0.0,
        1.0
      ],
      "type": "VEC2"
    },
    {
      "bufferView": 1,
      "byteOffset": 617248,
      "componentType": 5126,
      "count": 776,
      "max": [
        5.276013374328613,
        5.576375961303711
      ],
      "min": [
        -7.035704135894775,
        -4.52884578704834
      ],
      "type": "VEC2"
    },
    {
      "bufferView": 1,
      "byteOffset": 623456,
      "componentType": 5126,
      "count": 776,
      "max": [
        5.276013374328613,
        5.576375961303711
      ],
      "min": [
        -7.035704135894775,
        -4.52884578704834
      ],
      "type": "VEC2"
    },
    {
      "bufferView": 1,
      "byteOffset": 629664,
      "componentType": 5126,
      "count": 776,
      "max": [
        5.276013374328613,
        5.576375961303711
      ],
      "min": [
        -7.035704135894775,
        -4.52884578704834
      ],
      "type": "VEC2"
    },
    {
      "bufferView": 0,
      "byteOffset": 318912,
      "componentType": 5125,
      "count": 2319,
      "type": "SCALAR"
    },
    {
      "bufferView": 2,
      "byteOffset": 721416,
      "componentType": 5126,
      "count": 637,
      "max": [
        1.1653199195861816,
        7.427438735961914,
        1.1649866104125977
      ],
      "min": [
        -1.1684095859527588,
        3.816220998764038,
        -1.178810715675354
      ],
      "type": "VEC3"
    },
    {
      "bufferView": 2,
      "byteOffset": 729060,
      "componentType": 5126,
      "count": 637,
      "max": [
        0.9999942779541016,
        0.998954176902771,
        0.9999240636825562
      ],
      "min": [
        -0.9999935626983643,
        -0.9996218681335449,
        -0.9999138712882996
      ],
      "type": "VEC3"
    },
    {
      "bufferView": 3,
      "byteOffset": 226192,
      "componentType": 5126,
      "count": 637,
      "max": [
        0.981027364730835,
        0.6546310782432556,
        0.9998904466629028,
        1.0
      ],
      "min": [
        -0.9807402491569519,
        -0.6925698518753052,
        -0.9992268085479736,
        1.0
      ],
      "type": "VEC4"
    },
    {
      "bufferView": 1,
      "byteOffset": 635872,
      "componentType": 5126,
      "count": 637,
      "max": [
        1.0,
        1.0
      ],
      "min": [
        0.0,
        0.0
      ],
      "type": "VEC2"
    },
    {
      "bufferView": 1,
      "byteOffset": 640968,
      "componentType": 5126,
      "count": 637,
      "max": [
        1.0,
        1.0
      ],
      "min": [
        0.0,
        0.0
      ],
      "type": "VEC2"
    },
    {
      "bufferView": 1,
      "byteOffset": 646064,
      "componentType": 5126,
      "count": 637,
      "max": [
        1.0,
        1.0
      ],
      "min": [
        0.0,
        0.0
      ],
      "type": "VEC2"
    },
    {
      "bufferView": 1,
      "byteOffset": 651160,
      "componentType": 5126,
      "count": 637,
      "max": [
        1.0,
        1.0
      ],
      "min": [
        0.0,
        0.0
      ],
      "type": "VEC2"
    },
    {
      "bufferView": 0,
      "byteOffset": 328188,
      "componentType": 5125,
      "count": 3516,
      "type": "SCALAR"
    },
    {
      "bufferView": 2,
      "byteOffset": 736704,
      "componentType": 5126,
      "count": 1274,
      "max": [
        1.1653199195861816,
        7.427438735961914,
        1.1649866104125977
      ],
      "min": [
        -1.1684095859527588,
        0.6658034324645996,
        -1.178810715675354
      ],
      "type": "VEC3"
    },
    {
      "bufferView": 2,
      "byteOffset": 751992,
      "componentType": 5126,
      "count": 1274,
      "max": [
        0.9999942779541016,
        0.9989551305770874,
        0.9999240636825562
      ],
      "min": [
        -0.9999935626983643,
        -0.9996218681335449,
        -0.9999138712882996
      ],
      "type": "VEC3"
    },
    {
      "bufferView": 3,
      "byteOffset": 236384,
      "componentType": 5126,
      "count": 1274,
      "max": [
        0.981027364730835,
        0.654689371585846,
        0.9998904466629028,
        1.0
      ],
      "min": [
        -0.9807402491569519,
        -0.6925910115242004,
        -0.9992268085479736,
        1.0
      ],
      "type": "VEC4"
    },
    {
      "bufferView": 1,
      "byteOffset": 656256,
      "componentType": 5126,
      "count": 1274,
      "max": [
        1.0,
        1.0
      ],
      "min": [
        0.0,
        0.0
      ],
      "type": "VEC2"
    },
    {
      "bufferView": 1,
      "byteOffset": 666448,
      "componentType": 5126,
      "count": 1274,
      "max": [
        1.0,
        1.0
      ],
      "min": [
        0.0,
        0.0
      ],
      "type": "VEC2"
    },
    {
      "bufferView": 1,
      "byteOffset": 676640,
      "componentType": 5126,
      "count": 1274,
      "max": [
        1.0,
        1.0
      ],
      "min": [
        0.0,
        0.0
      ],
      "type": "VEC2"
    },
    {
      "bufferView": 1,
      "byteOffset": 686832,
      "componentType": 5126,
      "count": 1274,
      "max": [
        1.0,
        1.0
      ],
      "min": [
        0.0,
        0.0
      ],
      "type": "VEC2"
    },
    {
      "bufferView": 0,
      "byteOffset": 342252,
      "componentType": 5125,
      "count": 7032,
      "type": "SCALAR"
    },
    {
      "bufferView": 2,
      "byteOffset": 767280,
      "componentType": 5126,
      "count": 360,
      "max": [
        0.41719406843185425,
        3.4221582412719727,
        0.43052101135253906
      ],
      "min": [
        -0.5585305690765381,
        2.8885011672973633,
        -0.5469688177108765
      ],
      "type": "VEC3"
    },
    {
      "bufferView": 2,
      "byteOffset": 771600,
      "componentType": 5126,
      "count": 360,
      "max": [
        0.9982640743255615,
        1.0,
        0.9998078942298889
      ],
      "min": [
        -0.9984474182128906,
        -1.0,
        -0.9998078942298889
      ],
      "type": "VEC3"
    },
    {
      "bufferView": 3,
      "byteOffset": 256768,
      "componentType": 5126,
      "count": 360,
      "max": [
        0.9998079538345337,
        1.0,
        1.0,
        1.0
      ],
      "min": [
        -0.9998079538345337,
        -1.0,
        -1.0,
        1.0
      ],
      "type": "VEC4"
    },
    {
      "bufferView": 1,
      "byteOffset": 697024,
      "componentType": 5126,
      "count": 360,
      "max": [
        0.0,
        1.0
      ],
      "min": [
        0.0,
        1.0
      ],
      "type": "VEC2"
    },
    {
      "bufferView": 1,
      "byteOffset": 699904,
      "componentType": 5126,
      "count": 360,
      "max": [
        0.0,
        1.0
      ],
      "min": [
        0.0,
        1.0
      ],
      "type": "VEC2"
    },
    {
      "bufferView": 1,
      "byteOffset": 702784,
      "componentType": 5126,
      "count": 360,
      "max": [
        0.0,
        1.0
      ],
      "min": [
        0.0,
        1.0
      ],
      "type": "VEC2"
    },
    {
      "bufferView": 1,
      "byteOffset": 705664,
      "componentType": 5126,
      "count": 360,
      "max": [
        0.0,
        1.0
      ],
      "min": [
        0.0,
        1.0
      ],
      "type": "VEC2"
    },
    {
      "bufferView": 0,
      "byteOffset": 370380,
      "componentType": 5125,
      "count": 660,
      "type": "SCALAR"
    },
    {
      "bufferView": 2,
      "byteOffset": 775920,
      "componentType": 5126,
      "count": 438,
      "max": [
        1.6163911819458008,
        6.397638320922852,
        1.6163889169692993
      ],
      "min": [
        -1.6163867712020874,
        0.4083607494831085,
        -1.6163889169692993
      ],
      "type": "VEC3"
    },
    {
      "bufferView": 2,
      "byteOffset": 781176,
      "componentType": 5126,
      "count": 438,
      "max": [
        0.9876296520233154,
        1.0,
        0.9876296520233154
      ],
      "min": [
        -0.9876296520233154,
        -0.9998361468315125,
        -0.9876296520233154
      ],
      "type": "VEC3"
    },
    {
      "bufferView": 3,
      "byteOffset": 262528,
      "componentType": 5126,
      "count": 438,
      "max": [
        1.0,
        0.9876316785812378,
        1.0,
        1.0
      ],
      "min": [
        -1.0,
        -0.9876316785812378,
        -1.0,
        1.0
      ],
      "type": "VEC4"
    },
    {
      "bufferView": 1,
      "byteOffset": 708544,
      "componentType": 5126,
      "count": 438,
      "max": [
        0.0,
        1.0
      ],
      "min": [
        0.0,
        1.0
      ],
      "type": "VEC2"
    },
    {
      "bufferView": 1,
      "byteOffset": 712048,
      "componentType": 5126,
      "count": 438,
      "max": [
        0.0,
        1.0
      ],
      "min": [
        0.0,
        1.0
      ],
      "type": "VEC2"
    },
    {
      "bufferView": 1,
      "byteOffset": 715552,
      "componentType": 5126,
      "count": 438,
      "max": [
        0.0,
        1.0
      ],
      "min": [
        0.0,
        1.0
      ],
      "type": "VEC2"
    },
    {
      "bufferView": 1,
      "byteOffset": 719056,
      "componentType": 5126,
      "count": 438,
      "max": [
        0.0,
        1.0
      ],
      "min": [
        0.0,
        1.0
      ],
      "type": "VEC2"
    },
    {
      "bufferView": 0,
      "byteOffset": 373020,
      "componentType": 5125,
      "count": 2319,
      "type": "SCALAR"
    },
    {
      "bufferView": 2,
      "byteOffset": 786432,
      "componentType": 5126,
      "count": 637,
      "max": [
        1.1653199195861816,
        7.427438735961914,
        1.1649866104125977
      ],
      "min": [
        -1.1684095859527588,
        3.816220998764038,
        -1.178810715675354
      ],
      "type": "VEC3"
    },
    {
      "bufferView": 2,
      "byteOffset": 794076,
      "componentType": 5126,
      "count": 637,
      "max": [
        0.9999942779541016,
        0.998954176902771,
        0.9999240636825562
      ],
      "min": [
        -0.9999935626983643,
        -0.9996218681335449,
        -0.9999138712882996
      ],
      "type": "VEC3"
    },
    {
      "bufferView": 3,
      "byteOffset": 269536,
      "componentType": 5126,
      "count": 637,
      "max": [
        0.981027364730835,
        0.6546310782432556,
        0.9998904466629028,
        1.0
      ],
      "min": [
        -0.9807402491569519,
        -0.6925698518753052,
        -0.9992268085479736,
        1.0
      ],
      "type": "VEC4"
    },
    {
      "bufferView": 1,
      "byteOffset": 722560,
      "componentType": 5126,
      "count": 637,
      "max": [
        1.0,
        1.0
      ],
      "min": [
        0.0,
        0.0
      ],
      "type": "VEC2"
    },
    {
      "bufferView": 1,
      "byteOffset": 727656,
      "componentType": 5126,
      "count": 637,
      "max": [
        1.0,
        1.0
      ],
      "min": [
        0.0,
        0.0
      ],
      "type": "VEC2"
    },
    {
      "bufferView": 1,
      "byteOffset": 732752,
      "componentType": 5126,
      "count": 637,
      "max": [
        1.0,
        1.0
      ],
      "min": [
        0.0,
        0.0
      ],
      "type": "VEC2"
    },
    {
      "bufferView": 1,
      "byteOffset": 737848,
      "componentType": 5126,
      "count": 637,
      "max": [
        1.0,
        1.0
      ],
      "min": [
        0.0,
        0.0
      ],
      "type": "VEC2"
    },
    {
      "bufferView": 0,
      "byteOffset": 382296,
      "componentType": 5125,
      "count": 3516,
      "type": "SCALAR"
    },
    {
      "bufferView": 2,
      "byteOffset": 801720,
      "componentType": 5126,
      "count": 320,
      "max": [
        1.4975745677947998,
        1.191616177558899,
        1.4975745677947998
      ],
      "min": [
        -1.4975745677947998,
        -0.7541472315788269,
        -1.4975745677947998
      ],
      "type": "VEC3"
    },
    {
      "bufferView": 2,
      "byteOffset": 805560,
      "componentType": 5126,
      "count": 320,
      "max": [
        1.0,
        1.0,
        1.0
      ],
      "min": [
        -1.0,
        -0.6857031583786011,
        -1.0
      ],
      "type": "VEC3"
    },
    {
      "bufferView": 1,
      "byteOffset": 742944,
      "componentType": 5126,
      "count": 320,
      "max": [
        0.0,
        1.0
      ],
      "min": [
        0.0,
        1.0
      ],
      "type": "VEC2"
    },
    {
      "bufferView": 0,
      "byteOffset": 396360,
      "componentType": 5125,
      "count": 1920,
      "type": "SCALAR"
    },
    {
      "bufferView": 2,
      "byteOffset": 809400,
      "componentType": 5126,
      "count": 784,
      "max": [
        2.7380709648132324,
        1.8827131986618042,
        2.7165145874023438
      ],
      "min": [
        -2.7916505336761475,
        1.696804165840149,
        -2.7430331707000732
      ],
      "type": "VEC3"
    },
    {
      "bufferView": 2,
      "byteOffset": 818808,
      "componentType": 5126,
      "count": 784,
      "max": [
        0.9957401752471924,
        1.0,
        0.9957401752471924
      ],
      "min": [
        -0.9957401752471924,
        -1.0,
        -0.9957401752471924
      ],
      "type": "VEC3"
    },
    {
      "bufferView": 1,
      "byteOffset": 745504,
      "componentType": 5126,
      "count": 784,
      "max": [
        0.0,
        1.0
      ],
      "min": [
        0.0,
        1.0
      ],
      "type": "VEC2"
    },
    {
      "bufferView": 0,
      "byteOffset": 404040,
      "componentType": 5125,
      "count": 1542,
      "type": "SCALAR"
    },
    {
      "bufferView": 2,
      "byteOffset": 828216,
      "componentType": 5126,
      "count": 324,
      "max": [
        0.9641793966293335,
        -5.335456848144531,
        1.8243234157562256
      ],
      "min": [
        0.1460462510585785,
        -5.367090225219727,
        -1.5803475379943848
      ],
      "type": "VEC3"
    },
    {
      "bufferView": 2,
      "byteOffset": 832104,
      "componentType": 5126,
      "count": 324,
      "max": [
        1.0,
        1.0,
        1.0
      ],
      "min": [
        -1.0,
        -1.0,
        -1.0
      ],
      "type": "VEC3"
    },
    {
      "bufferView": 1,
      "byteOffset": 751776,
      "componentType": 5126,
      "count": 324,
      "max": [
        0.0,
        1.0
      ],
      "min": [
        0.0,
        1.0
      ],
      "type": "VEC2"
    },
    {
      "bufferView": 0,
      "byteOffset": 410208,
      "componentType": 5125,
      "count": 600,
      "type": "SCALAR"
    },
    {
      "bufferView": 2,
      "byteOffset": 835992,
      "componentType": 5126,
      "count": 134,
      "max": [
        0.5533320903778076,
        4.787538528442383,
        0.49034443497657776
      ],
      "min": [
        -0.1491210162639618,
        4.283979415893555,
        -0.2121087908744812
      ],
      "type": "VEC3"
    },
    {
      "bufferView": 2,
      "byteOffset": 837600,
      "componentType": 5126,
      "count": 134,
      "max": [
        0.9947566986083984,
        0.7498226165771484,
        0.9441864490509033
      ],
      "min": [
        -0.9947338104248047,
        -0.7482081651687622,
        -0.9517615437507629
      ],
      "type": "VEC3"
    },
    {
      "bufferView": 1,
      "byteOffset": 754368,
      "componentType": 5126,
      "count": 134,
      "max": [
        0.0,
        1.0
      ],
      "min": [
        0.0,
        1.0
      ],
      "type": "VEC2"
    },
    {
      "bufferView": 0,
      "byteOffset": 412608,
      "componentType": 5125,
      "count": 798,
      "type": "SCALAR"
    },
    {
      "bufferView": 2,
      "byteOffset": 839208,
      "componentType": 5126,
      "count": 95,
      "max": [
        1.7250269651412964,
        4.883934497833252,
        0.6804033517837524
      ],
      "min": [
        -0.32851171493530273,
        4.478492736816406,
        -1.175196886062622
      ],
      "type": "VEC3"
    },
    {
      "bufferView": 2,
      "byteOffset": 840348,
      "componentType": 5126,
      "count": 95,
      "max": [
        0.7851994633674622,
        0.7299149036407471,
        0.7278916835784912
      ],
      "min": [
        -0.7278916835784912,
        -0.7275999784469604,
        -0.7498136758804321
      ],
      "type": "VEC3"
    },
    {
      "bufferView": 1,
      "byteOffset": 755440,
      "componentType": 5126,
      "count": 95,
      "max": [
        0.0,
        1.0
      ],
      "min": [
        0.0,
        1.0
      ],
      "type": "VEC2"
    },
    {
      "bufferView": 0,
      "byteOffset": 415800,
      "componentType": 5125,
      "count": 570,
      "type": "SCALAR"
    },
    {
      "bufferView": 2,
      "byteOffset": 841488,
      "componentType": 5126,
      "count": 134,
      "max": [
        0.5533320903778076,
        4.787538528442383,
        0.49034443497657776
      ],
      "min": [
        -0.1491210162639618,
        4.283979415893555,
        -0.2121087908744812
      ],
      "type": "VEC3"
    },
    {
      "bufferView": 2,
      "byteOffset": 843096,
      "componentType": 5126,
      "count": 134,
      "max": [
        0.9947566986083984,
        0.7498226165771484,
        0.9441864490509033
      ],
      "min": [
        -0.9947338104248047,
        -0.7482081651687622,
        -0.9517615437507629
      ],
      "type": "VEC3"
    },
    {
      "bufferView": 1,
      "byteOffset": 756200,
      "componentType": 5126,
      "count": 134,
      "max": [
        0.0,
        1.0
      ],
      "min": [
        0.0,
        1.0
      ],
      "type": "VEC2"
    },
    {
      "bufferView": 0,
      "byteOffset": 418080,
      "componentType": 5125,
      "count": 798,
      "type": "SCALAR"
    },
    {
      "bufferView": 2,
      "byteOffset": 844704,
      "componentType": 5126,
      "count": 95,
      "max": [
        1.8841427564620972,
        4.883934497833252,
        0.5618656873703003
      ],
      "min": [
        -0.24816574156284332,
        4.478492736816406,
        -1.3536101579666138
      ],
      "type": "VEC3"
    },
    {
      "bufferView": 2,
      "byteOffset": 845844,
      "componentType": 5126,
      "count": 95,
      "max": [
        0.8014819622039795,
        0.7299149036407471,
        0.7278916835784912
      ],
      "min": [
        -0.7278916835784912,
        -0.7283120155334473,
        -0.770684003829956
      ],
      "type": "VEC3"
    },
    {
      "bufferView": 1,
      "byteOffset": 757272,
      "componentType": 5126,
      "count": 95,
      "max": [
        0.0,
        1.0
      ],
      "min": [
        0.0,
        1.0
      ],
      "type": "VEC2"
    },
    {
      "bufferView": 0,
      "byteOffset": 421272,
      "componentType": 5125,
      "count": 570,
      "type": "SCALAR"
    },
    {
      "bufferView": 2,
      "byteOffset": 846984,
      "componentType": 5126,
      "count": 134,
      "max": [
        0.5533320903778076,
        4.787538528442383,
        0.49034443497657776
      ],
      "min": [
        -0.1491210162639618,
        4.283979415893555,
        -0.2121087908744812
      ],
      "type": "VEC3"
    },
    {
      "bufferView": 2,
      "byteOffset": 848592,
      "componentType": 5126,
      "count": 134,
      "max": [
        0.9947566986083984,
        0.7498226165771484,
        0.9441864490509033
      ],
      "min": [
        -0.9947338104248047,
        -0.7482081651687622,
        -0.9517615437507629
      ],
      "type": "VEC3"
    },
    {
      "bufferView": 1,
      "byteOffset": 758032,
      "componentType": 5126,
      "count": 134,
      "max": [
        0.0,
        1.0
      ],
      "min": [
        0.0,
        1.0
      ],
      "type": "VEC2"
    },
    {
      "bufferView": 0,
      "byteOffset": 423552,
      "componentType": 5125,
      "count": 798,
      "type": "SCALAR"
    },
    {
      "bufferView": 2,
      "byteOffset": 850200,
      "componentType": 5126,
      "count": 95,
      "max": [
        1.574796438217163,
        4.883934497833252,
        0.5618656873703003
      ],
      "min": [
        -0.4169456958770752,
        4.478492736816406,
        -1.4672316312789917
      ],
      "type": "VEC3"
    },
    {
      "bufferView": 2,
      "byteOffset": 851340,
      "componentType": 5126,
      "count": 95,
      "max": [
        0.8035945892333984,
        0.7299149036407471,
        0.7278916835784912
      ],
      "min": [
        -0.7278916835784912,
        -0.728087306022644,
        -0.7467943429946899
      ],
      "type": "VEC3"
    },
    {
      "bufferView": 1,
      "byteOffset": 759104,
      "componentType": 5126,
      "count": 95,
      "max": [
        0.0,
        1.0
      ],
      "min": [
        0.0,
        1.0
      ],
      "type": "VEC2"
    },
    {
      "bufferView": 0,
      "byteOffset": 426744,
      "componentType": 5125,
      "count": 570,
      "type": "SCALAR"
    },
    {
      "bufferView": 2,
      "byteOffset": 852480,
      "componentType": 5126,
      "count": 134,
      "max": [
        0.5533320903778076,
        4.787538528442383,
        0.49034443497657776
      ],
      "min": [
        -0.1491210162639618,
        4.283979415893555,
        -0.2121087908744812
      ],
      "type": "VEC3"
    },
    {
      "bufferView": 2,
      "byteOffset": 854088,
      "componentType": 5126,
      "count": 134,
      "max": [
        0.9947566986083984,
        0.7498226165771484,
        0.9441864490509033
      ],
      "min": [
        -0.9947338104248047,
        -0.7482081651687622,
        -0.9517615437507629
      ],
      "type": "VEC3"
    },
    {
      "bufferView": 1,
      "byteOffset": 759864,
      "componentType": 5126,
      "count": 134,
      "max": [
        0.0,
        1.0
      ],
      "min": [
        0.0,
        1.0
      ],
      "type": "VEC2"
    },
    {
      "bufferView": 0,
      "byteOffset": 429024,
      "componentType": 5125,
      "count": 798,
      "type": "SCALAR"
    },
    {
      "bufferView": 2,
      "byteOffset": 855696,
      "componentType": 5126,
      "count": 95,
      "max": [
        1.8841427564620972,
        4.883934497833252,
        0.5618656873703003
      ],
      "min": [
        -0.24816574156284332,
        4.478492736816406,
        -1.3536101579666138
      ],
      "type": "VEC3"
    },
    {
      "bufferView": 2,
      "byteOffset": 856836,
      "componentType": 5126,
      "count": 95,
      "max": [
        0.8014819622039795,
        0.7299149036407471,
        0.7278916835784912
      ],
      "min": [
        -0.7278916835784912,
        -0.7283120155334473,
        -0.770684003829956
      ],
      "type": "VEC3"
    },
    {
      "bufferView": 1,
      "byteOffset": 760936,
      "componentType": 5126,
      "count": 95,
      "max": [
        0.0,
        1.0
      ],
      "min": [
        0.0,
        1.0
      ],
      "type": "VEC2"
    },
    {
      "bufferView": 0,
      "byteOffset": 432216,
      "componentType": 5125,
      "count": 570,
      "type": "SCALAR"
    },
    {
      "bufferView": 2,
      "byteOffset": 857976,
      "componentType": 5126,
      "count": 1000,
      "max": [
        1.0,
        0.40176472067832947,
        1.0000004768371582
      ],
      "min": [
        -1.0,
        -0.1659991443157196,
        -1.0000004768371582
      ],
      "type": "VEC3"
    },
    {
      "bufferView": 2,
      "byteOffset": 869976,
      "componentType": 5126,
      "count": 1000,
      "max": [
        1.0,
        1.0,
        1.0
      ],
      "min": [
        -1.0,
        -1.0,
        -1.0
      ],
      "type": "VEC3"
    },
    {
      "bufferView": 1,
      "byteOffset": 761696,
      "componentType": 5126,
      "count": 1000,
      "max": [
        0.0,
        1.0
      ],
      "min": [
        0.0,
        1.0
      ],
      "type": "VEC2"
    },
    {
      "bufferView": 0,
      "byteOffset": 434496,
      "componentType": 5125,
      "count": 5166,
      "type": "SCALAR"
    }
  ],
  "asset": {
    "extras": {
      "author": "PolyDavid (https://sketchfab.com/PolyDavid)",
      "license": "CC-BY-4.0 (http://creativecommons.org/licenses/by/4.0/)",
      "source": "https://sketchfab.com/3d-models/free-amd-wraith-stealth-cpu-cooler-ff1e128c191c4f808e60e7a7a523c9cc",
      "title": "(Free) AMD Wraith Stealth CPU Cooler"
    },
    "generator": "Sketchfab-17.15.0",
    "version": "2.0"
  },
  "bufferViews": [
    {
      "buffer": 0,
      "byteLength": 455160,
      "name": "floatBufferViews",
      "target": 34963
    },
    {
      "buffer": 0,
      "byteLength": 769696,
      "byteOffset": 455160,
      "byteStride": 8,
      "name": "floatBufferViews",
      "target": 34962
    },
    {
      "buffer": 0,
      "byteLength": 881976,
      "byteOffset": 1224856,
      "byteStride": 12,
      "name": "floatBufferViews",
      "target": 34962
    },
    {
      "buffer": 0,
      "byteLength": 279728,
      "byteOffset": 2106832,
      "byteStride": 16,
      "name": "floatBufferViews",
      "target": 34962
    }
  ],
  "buffers": [
    {
      "byteLength": 2386560,
      "uri": "scene.bin"
    }
  ],
  "extensionsUsed": [
    "KHR_materials_specular"
  ],
  "images": [
    {
      "uri": "textures/AR3DMat_PBR_Brushed_Aluminum_baseColor.jpeg"
    },
    {
      "uri": "textures/AR3DMat_PBR_Brushed_Aluminum_metallicRoughness.png"
    },
    {
      "uri": "textures/AR3DMat_PBR_Brushed_Aluminum_normal.jpeg"
    },
    {
      "uri": "textures/Scratched_metal_baseColor.jpeg"
    },
    {
      "uri": "textures/Scratched_metal_metallicRoughness.png"
    },
    {
      "uri": "textures/Scratched_metal_normal.jpeg"
    }
  ],
  "materials": [
    {
      "doubleSided": true,
      "name": "material_0",
      "pbrMetallicRoughness": {
        "metallicFactor": 0.0,
        "roughnessFactor": 0.6
      }
    },
    {
      "doubleSided": true,
      "name": "AR3DMat_PBR_Brushed_Aluminum",
      "normalTexture": {
        "index": 2
      },
      "pbrMetallicRoughness": {
        "baseColorTexture": {
          "index": 0
        },
        "metallicRoughnessTexture": {
          "index": 1
        }
      }
    },
    {
      "doubleSided": true,
      "name": "Procedural_pearl_black_painted_plastic",
      "pbrMetallicRoughness": {
        "baseColorFactor": [
          0.0,
          0.0,
          0.0,
          1.0
        ],
        "metallicFactor": 0.414035,
        "roughnessFactor": 0.514035
      }
    },
    {
      "doubleSided": true,
      "name": "AR3DMat_PBR_Brushed_Aluminum_0",
      "normalTexture": {
        "index": 2
      },
      "pbrMetallicRoughness": {
        "baseColorTexture": {
          "index": 0
        },
        "metallicRoughnessTexture": {
          "index": 1
        }
      }
    },
    {
      "doubleSided": true,
      "name": "Scratched_metal",
      "normalTexture": {
        "index": 5
      },
      "pbrMetallicRoughness": {
        "baseColorTexture": {
          "index": 3
        },
        "metallicRoughnessTexture": {
          "index": 4
        }
      }
    },
    {
      "doubleSided": true,
      "name": "Scratched_metal_0",
      "normalTexture": {
        "index": 5
      },
      "pbrMetallicRoughness": {
        "baseColorTexture": {
          "index": 3
        },
        "metallicRoughnessTexture": {
          "index": 4
        }
      }
    },
    {
      "doubleSided": true,
      "extensions": {
        "KHR_materials_specular": {
          "specularColorFactor": [
            1.0,
            1.0,
            1.0
          ],
          "specularFactor": 0.8
        }
      },
      "name": "Cheap_Plastic",
      "pbrMetallicRoughness": {
        "baseColorFactor": [
          0.002,
          0.002,
          0.002,
          1.0
        ],
        "metallicFactor": 0.0
      }
    }
  ],
  "meshes": [
    {
      "name": "Object_0",
      "primitives": [
        {
          "attributes": {
            "NORMAL": 1,
            "POSITION": 0,
            "TEXCOORD_0": 2
          },
          "indices": 3,
          "material": 0,
          "mode": 4
        }
      ]
    },
    {
      "name": "Object_1",
      "primitives": [
        {
          "attributes": {
            "NORMAL": 5,
            "POSITION": 4,
            "TANGENT": 6,
            "TEXCOORD_0": 7,
            "TEXCOORD_1": 8,
            "TEXCOORD_2": 9,
            "TEXCOORD_3": 10,
            "TEXCOORD_4": 11
          },
          "indices": 12,
          "material": 1,
          "mode": 4
        }
      ]
    },
    {
      "name": "Object_2",
      "primitives": [
        {
          "attributes": {
            "NORMAL": 14,
            "POSITION": 13,
            "TEXCOORD_0": 15,
            "TEXCOORD_1": 16
          },
          "indices": 17,
          "material": 2,
          "mode": 4
        }
      ]
    },
    {
      "name": "Object_3",
      "primitives": [
        {
          "attributes": {
            "NORMAL": 19,
            "POSITION": 18,
            "TEXCOORD_0": 20
          },
          "indices": 21,
          "material": 0,
          "mode": 4
        }
      ]
    },
    {
      "name": "Object_4",
      "primitives": [
        {
          "attributes": {
            "NORMAL": 23,
            "POSITION": 22,
            "TEXCOORD_0": 24
          },
          "indices": 25,
          "material": 2,
          "mode": 4
        }
      ]
    },
    {
      "name": "Object_5",
      "primitives": [
        {
          "attributes": {
            "NORMAL": 27,
            "POSITION": 26,
            "TEXCOORD_0": 28
          },
          "indices": 29,
          "material": 0,
          "mode": 4
        }
      ]
    },
    {
      "name": "Object_6",
      "primitives": [
        {
          "attributes": {
            "NORMAL": 31,
            "POSITION": 30,
            "TANGENT": 32,
            "TEXCOORD_0": 33,
            "TEXCOORD_1": 34,
            "TEXCOORD_2": 35,
            "TEXCOORD_3": 36
          },
          "indices": 37,
          "material": 3,
          "mode": 4
        }
      ]
    },
    {
      "name": "Object_7",
      "primitives": [
        {
          "attributes": {
            "NORMAL": 39,
            "POSITION": 38,
            "TEXCOORD_0": 40
          },
          "indices": 41,
          "material": 0,
          "mode": 4
        }
      ]
    },
    {
      "name": "Object_8",
      "primitives": [
        {
          "attributes": {
            "NORMAL": 43,
            "POSITION": 42,
            "TANGENT": 44,
            "TEXCOORD_0": 45,
            "TEXCOORD_1": 46,
            "TEXCOORD_2": 47,
            "TEXCOORD_3": 48
          },
          "indices": 49,
          "material": 3,
          "mode": 4
        }
      ]
    },
    {
      "name": "Object_9",
      "primitives": [
        {
          "attributes": {
            "NORMAL": 51,
            "POSITION": 50,
            "TEXCOORD_0": 52
          },
          "indices": 53,
          "material": 0,
          "mode": 4
        }
      ]
    },
    {
      "name": "Object_10",
      "primitives": [
        {
          "attributes": {
            "NORMAL": 55,
            "POSITION": 54,
            "TANGENT": 56,
            "TEXCOORD_0": 57,
            "TEXCOORD_1": 58,
            "TEXCOORD_2": 59,
            "TEXCOORD_3": 60
          },
          "indices": 61,
          "material": 3,
          "mode": 4
        }
      ]
    },
    {
      "name": "Object_11",
      "primitives": [
        {
          "attributes": {
            "NORMAL": 63,
            "POSITION": 62,
            "TEXCOORD_0": 64
          },
          "indices": 65,
          "material": 0,
          "mode": 4
        }
      ]
    },
    {
      "name": "Object_12",
      "primitives": [
        {
          "attributes": {
            "NORMAL": 67,
            "POSITION": 66,
            "TANGENT": 68,
            "TEXCOORD_0": 69,
            "TEXCOORD_1": 70,
            "TEXCOORD_2": 71,
            "TEXCOORD_3": 72
          },
          "indices": 73,
          "material": 3,
          "mode": 4
        }
      ]
    },
    {
      "name": "Object_13",
      "primitives": [
        {
          "attributes": {
            "NORMAL": 75,
            "POSITION": 74,
            "TANGENT": 76,
            "TEXCOORD_0": 77,
            "TEXCOORD_1": 78,
            "TEXCOORD_2": 79,
            "TEXCOORD_3": 80
          },
          "indices": 81,
          "material": 4,
          "mode": 4
        }
      ]
    },
    {
      "name": "Object_14",
      "primitives": [
        {
          "attributes": {
            "NORMAL": 83,
            "POSITION": 82,
            "TANGENT": 84,
            "TEXCOORD_0": 85,
            "TEXCOORD_1": 86,
            "TEXCOORD_2": 87,
            "TEXCOORD_3": 88
          },
          "indices": 89,
          "material": 4,
          "mode": 4
        }
      ]
    },
    {
      "name": "Object_15",
      "primitives": [
        {
          "attributes": {
            "NORMAL": 91,
            "POSITION": 90,
            "TANGENT": 92,
            "TEXCOORD_0": 93,
            "TEXCOORD_1": 94,
            "TEXCOORD_2": 95,
            "TEXCOORD_3": 96
          },
          "indices": 97,
          "material": 4,
          "mode": 4
        }
      ]
    },
    {
      "name": "Object_16",
      "primitives": [
        {
          "attributes": {
            "NORMAL": 99,
            "POSITION": 98,
            "TANGENT": 100,
            "TEXCOORD_0": 101,
            "TEXCOORD_1": 102,
            "TEXCOORD_2": 103,
            "TEXCOORD_3": 104
          },
          "indices": 105,
          "material": 4,
          "mode": 4
        }
      ]
    },
    {
      "name": "Object_17",
      "primitives": [
        {
          "attributes": {
            "NORMAL": 107,
            "POSITION": 106,
            "TANGENT": 108,
            "TEXCOORD_0": 109,
            "TEXCOORD_1": 110,
            "TEXCOORD_2": 111,
            "TEXCOORD_3": 112
          },
          "indices": 113,
          "material": 4,
          "mode": 4
        }
      ]
    },
    {
      "name": "Object_18",
      "primitives": [
        {
          "attributes": {
            "NORMAL": 115,
            "POSITION": 114,
            "TANGENT": 116,
            "TEXCOORD_0": 117,
            "TEXCOORD_1": 118,
            "TEXCOORD_2": 119,
            "TEXCOORD_3": 120
          },
          "indices": 121,
          "material": 4,
          "mode": 4
        }
      ]
    },
    {
      "name": "Object_19",
      "primitives": [
        {
          "attributes": {
            "NORMAL": 123,
            "POSITION": 122,
            "TANGENT": 124,
            "TEXCOORD_0": 125,
            "TEXCOORD_1": 126,
            "TEXCOORD_2": 127,
            "TEXCOORD_3": 128
          },
          "indices": 129,
          "material": 4,
          "mode": 4
        }
      ]
    },
    {
      "name": "Object_20",
      "primitives": [
        {
          "attributes": {
            "NORMAL": 131,
            "POSITION": 130,
            "TANGENT": 132,
            "TEXCOORD_0": 133,
            "TEXCOORD_1": 134,
            "TEXCOORD_2": 135,
            "TEXCOORD_3": 136,
            "TEXCOORD_4": 137
          },
          "indices": 138,
          "material": 5,
          "mode": 4
        }
      ]
    },
    {
      "name": "Object_21",
      "primitives": [
        {
          "attributes": {
            "NORMAL": 140,
            "POSITION": 139,
            "TANGENT": 141,
            "TEXCOORD_0": 142,
            "TEXCOORD_1": 143,
            "TEXCOORD_2": 144,
            "TEXCOORD_3": 145
          },
          "indices": 146,
          "material": 4,
          "mode": 4
        }
      ]
    },
    {
      "name": "Object_22",
      "primitives": [
        {
          "attributes": {
            "NORMAL": 148,
            "POSITION": 147,
            "TANGENT": 149,
            "TEXCOORD_0": 150,
            "TEXCOORD_1": 151,
            "TEXCOORD_2": 152,
            "TEXCOORD_3": 153
          },
          "indices": 154,
          "material": 4,
          "mode": 4
        }
      ]
    },
    {
      "name": "Object_23",
      "primitives": [
        {
          "attributes": {
            "NORMAL": 156,
            "POSITION": 155,
            "TANGENT": 157,
            "TEXCOORD_0": 158,
            "TEXCOORD_1": 159,
            "TEXCOORD_2": 160,
            "TEXCOORD_3": 161
          },
          "indices": 162,
          "material": 4,
          "mode": 4
        }
      ]
    },
    {
      "name": "Object_24",
      "primitives": [
        {
          "attributes": {
            "NORMAL": 164,
            "POSITION": 163,
            "TANGENT": 165,
            "TEXCOORD_0": 166,
            "TEXCOORD_1": 167,
            "TEXCOORD_2": 168,
            "TEXCOORD_3": 169
          },
          "indices": 170,
          "material": 4,
          "mode": 4
        }
      ]
    },
    {
      "name": "Object_25",
      "primitives": [
        {
          "attributes": {
            "NORMAL": 172,
            "POSITION": 171,
            "TANGENT": 173,
            "TEXCOORD_0": 174,
            "TEXCOORD_1": 175,
            "TEXCOORD_2": 176,
            "TEXCOORD_3": 177
          },
          "indices": 178,
          "material": 4,
          "mode": 4
        }
      ]
    },
    {
      "name": "Object_26",
      "primitives": [
        {
          "attributes": {
            "NORMAL": 180,
            "POSITION": 179,
            "TEXCOORD_0": 181
          },
          "indices": 182,
          "material": 2,
          "mode": 4
        }
      ]
    },
    {
      "name": "Object_27",
      "primitives": [
        {
          "attributes": {
            "NORMAL": 184,
            "POSITION": 183,
            "TEXCOORD_0": 185
          },
          "indices": 186,
          "material": 6,
          "mode": 4
        }
      ]
    },
    {
      "name": "Object_28",
      "primitives": [
        {
          "attributes": {
            "NORMAL": 188,
            "POSITION": 187,
            "TEXCOORD_0": 189
          },
          "indices": 190,
          "material": 0,
          "mode": 4
        }
      ]
    },
    {
      "name": "Object_29",
      "primitives": [
        {
          "attributes": {
            "NORMAL": 192,
            "POSITION": 191,
            "TEXCOORD_0": 193
          },
          "indices": 194,
          "material": 2,
          "mode": 4
        }
      ]
    },
    {
      "name": "Object_30",
      "primitives": [
        {
          "attributes": {
            "NORMAL": 196,
            "POSITION": 195,
            "TEXCOORD_0": 197
          },
          "indices": 198,
          "material": 2,
          "mode": 4
        }
      ]
    },
    {
      "name": "Object_31",
      "primitives": [
        {
          "attributes": {
            "NORMAL": 200,
            "POSITION": 199,
            "TEXCOORD_0": 201
          },
          "indices": 202,
          "material": 2,
          "mode": 4
        }
      ]
    },
    {
      "name": "Object_32",
      "primitives": [
        {
          "attributes": {
            "NORMAL": 204,
            "POSITION": 203,
            "TEXCOORD_0": 205
          },
          "indices": 206,
          "material": 2,
          "mode": 4
        }
      ]
    },
    {
      "name": "Object_33",
      "primitives": [
        {
          "attributes": {
            "NORMAL": 208,
            "POSITION": 207,
            "TEXCOORD_0": 209
          },
          "indices": 210,
          "material": 2,
          "mode": 4
        }
      ]
    },
    {
      "name": "Object_34",
      "primitives": [
        {
          "attributes": {
            "NORMAL": 212,
            "POSITION": 211,
            "TEXCOORD_0": 213
          },
          "indices": 214,
          "material": 2,
          "mode": 4
        }
      ]
    },
    {
      "name": "Object_35",
      "primitives": [
        {
          "attributes": {
            "NORMAL": 216,
            "POSITION": 215,
            "TEXCOORD_0": 217
          },
          "indices": 218,
          "material": 2,
          "mode": 4
        }
      ]
    },
    {
      "name": "Object_36",
      "primitives": [
        {
          "attributes": {
            "NORMAL": 220,
            "POSITION": 219,
            "TEXCOORD_0": 221
          },
          "indices": 222,
          "material": 2,
          "mode": 4
        }
      ]
    },
    {
      "name": "Object_37",
      "primitives": [
        {
          "attributes": {
            "NORMAL": 224,
            "POSITION": 223,
            "TEXCOORD_0": 225
          },
          "indices": 226,
          "material": 2,
          "mode": 4
        }
      ]
    }
  ],
  "nodes": [
    {
      "children": [
        1
      ],
      "matrix": [
        1.0,
        0.0,
        0.0,
        0.0,
        0.0,
        2.220446049250313e-16,
        -1.0,
        0.0,
        0.0,
        1.0,
        2.220446049250313e-16,
        0.0,
        0.0,
        0.0,
        0.0,
        1.0
      ],
      "name": "Sketchfab_model"
    },
    {
      "children": [
        2
      ],
      "name": "root"
    },
    {
      "children": [
        3,
        5,
        7,
        9,
        11,
        13,
        15,
        17,
        19,
        21,
        23,
        25,
        27,
        29,
        31,
        33,
        35,
        37,
        39,
        41,
        43,
        45,
        47,
        49,
        51,
        53,
        55,
        57,
        59,
        61,
        63,
        65,
        67,
        69,
        71,
        73,
        75,
        77
      ],
      "matrix": [
        1.0,
        0.0,
        0.0,
        0.0,
        0.0,
        2.220446049250313e-16,
        1.0,
        0.0,
        0.0,
        -1.0,
        2.220446049250313e-16,
        0.0,
        0.0,
        0.0,
        0.0,
        1.0
      ],
      "name": "GLTF_SceneRootNode"
    },
    {
      "children": [
        4
      ],
      "matrix": [
        2.233093023300171,
        0.0,
        0.0,
        0.0,
        0.0,
        2.233093023300171,
        0.0,
        0.0,
        0.0,
        0.0,
        2.233093023300171,
        0.0,
        0.17886650562286377,
        -5.727357387542725,
        0.0,
        1.0
      ],
      "name": "wtf dies this even do_0"
    },
    {
      "mesh": 0,
      "name": "Object_4"
    },
    {
      "children": [
        6
      ],
      "matrix": [
        6.647346496582031,
        0.0,
        0.0,
        0.0,
        0.0,
        6.647346496582031,
        0.0,
        0.0,
        0.0,
        0.0,
        6.647346496582031,
        0.0,
        -0.012202128767967224,
        -2.4725353717803955,
        0.024637602269649506,
        1.0
      ],
      "name": "sep[arated_1"
    },
    {
      "mesh": 1,
      "name": "Object_6"
    },
    {
      "children": [
        8
      ],
      "matrix": [
        7.559370994567871,
        0.0,
        0.0,
        0.0,
        0.0,
        7.534572601318359,
        0.0,
        0.0,
        0.0,
        0.0,
        7.534572601318359,
        0.0,
        0.019292011857032776,
        0.0,
        0.0,
        1.0
      ],
      "name": "grontal block_2"
    },
    {
      "mesh": 2,
      "name": "Object_8"
    },
    {
      "children": [
        10
      ],
      "matrix": [
        2.542670249938965,
        0.0,
        0.0,
        0.0,
        0.0,
        2.2387497425079346,
        0.0,
        0.0,
        0.0,
        0.0,
        2.542670249938965,
        0.0,
        0.15733221173286438,
        -5.04339599609375,
        0.03371404856443405,
        1.0
      ],
      "name": "foxconn thingy_3"
    },
    {
      "mesh": 3,
      "name": "Object_10"
    },
    {
      "children": [
        12
      ],
      "matrix": [
        1.8314791917800903,
        0.0,
        0.0,
        0.0,
        0.0,
        1.8314791917800903,
        0.0,
        0.0,
        0.0,
        0.0,
        1.8314791917800903,
        0.0,
        0.0,
        0.6626709699630737,
        0.0,
        1.0
      ],
      "name": "Circle.041_4"
    },
    {
      "mesh": 4,
      "name": "Object_12"
    },
    {
      "children": [
        14
      ],
      "matrix": [
        5.289519207785478e-08,
        0.0,
        0.08964437991379132,
        0.0,
        -0.0,
        0.18489301204681396,
        0.0,
        0.0,
        -0.08964437991379132,
        -0.0,
        5.289519207785478e-08,
        0.0,
        -5.432094097137451,
        -0.9284487366676331,
        5.494074821472168,
        1.0
      ],
      "name": "Circle.033_5"
    },
    {
      "mesh": 5,
      "name": "Object_14"
    },
    {
      "children": [
        16
      ],
      "matrix": [
        1.1988785089332235e-07,
        0.0,
        0.23704391717907733,
        0.0,
        -0.0,
        0.23704391717910767,
        0.0,
        0.0,
        -0.23704391717907733,
        -0.0,
        1.1988785089332235e-07,
        0.0,
        -5.432094097137451,
        -0.7822896242141724,
        5.494074821472168,
        1.0
      ],
      "name": "Circle.032_6"
    },
    {
      "mesh": 6,
      "name": "Object_16"
    },
    {
      "children": [
        18
      ],
      "matrix": [
        -0.08964437991380214,
        0.0,
        2.9209845005838987e-08,
        0.0,
        -0.0,
        0.18489301204681396,
        0.0,
        0.0,
        -2.9209845005838987e-08,
        -0.0,
        -0.08964437991380214,
        0.0,
        -5.553652286529541,
        -0.9284487962722778,
        -5.366751194000244,
        1.0
      ],
      "name": "Circle.031_7"
    },
    {
      "mesh": 7,
      "name": "Object_18"
    },
    {
      "children": [
        20
      ],
      "matrix": [
        -0.23704391717909504,
        0.0,
        7.723871469675656e-08,
        0.0,
        -0.0,
        0.23704391717910767,
        0.0,
        0.0,
        -7.723871469675656e-08,
        -0.0,
        -0.23704391717909504,
        0.0,
        -5.553652286529541,
        -0.7822896838188171,
        -5.366751194000244,
        1.0
      ],
      "name": "Circle.030_8"
    },
    {
      "mesh": 8,
      "name": "Object_20"
    },
    {
      "children": [
        22
      ],
      "matrix": [
        -7.556456011122111e-09,
        0.0,
        -0.08964437991380661,
        0.0,
        0.0,
        0.18489301204681396,
        0.0,
        0.0,
        0.08964437991380661,
        0.0,
        -7.556456011122111e-09,
        0.0,
        5.207230091094971,
        -0.9277313351631165,
        -5.234222412109375,
        1.0
      ],
      "name": "Circle.029_9"
    },
    {
      "mesh": 9,
      "name": "Object_22"
    },
    {
      "children": [
        24
      ],
      "matrix": [
        0.0,
        0.0,
        -0.23704391717910767,
        0.0,
        0.0,
        0.23704391717910767,
        0.0,
        0.0,
        0.23704391717910767,
        0.0,
        0.0,
        0.0,
        5.207230091094971,
        -0.7815722227096558,
        -5.234222412109375,
        1.0
      ],
      "name": "Circle.028_10"
    },
    {
      "mesh": 10,
      "name": "Object_24"
    },
    {
      "children": [
        26
      ],
      "matrix": [
        0.08964437991380692,
        0.0,
        0.0,
        0.0,
        0.0,
        0.18489301204681396,
        0.0,
        0.0,
        0.0,
        0.0,
        0.08964437991380692,
        0.0,
        5.3267316818237305,
        -0.9277313947677612,
        5.445788383483887,
        1.0
      ],
      "name": "Circle.027_11"
    },
    {
      "mesh": 11,
      "name": "Object_26"
    },
    {
      "children": [
        28
      ],
      "matrix": [
        0.23704391717910767,
        0.0,
        0.0,
        0.0,
        0.0,
        0.23704391717910767,
        0.0,
        0.0,
        0.0,
        0.0,
        0.23704391717910767,
        0.0,
        5.3267316818237305,
        -0.7815722823143005,
        5.445788383483887,
        1.0
      ],
      "name": "Circle.025_12"
    },
    {
      "mesh": 12,
      "name": "Object_28"
    },
    {
      "children": [
        30
      ],
      "matrix": [
        -0.3524350523948482,
        0.0,
        1.1483791025134024e-07,
        0.0,
        0.0,
        0.08664380013942719,
        0.0,
        0.0,
        -1.1483791025134024e-07,
        -0.0,
        -0.3524350523948482,
        0.0,
        6.71316385269165,
        -5.004030227661133,
        4.105759620666504,
        1.0
      ],
      "name": "Circle.021_13"
    },
    {
      "mesh": 13,
      "name": "Object_30"
    },
    {
      "children": [
        32
      ],
      "matrix": [
        0.5340439677238464,
        0.0,
        0.0,
        0.0,
        0.0,
        0.5340439677238464,
        0.0,
        0.0,
        0.0,
        0.0,
        0.5340439677238464,
        0.0,
        6.7082366943359375,
        -5.294457912445068,
        4.104644298553467,
        1.0
      ],
      "name": "Circle.020_14"
    },
    {
      "mesh": 14,
      "name": "Object_32"
    },
    {
      "children": [
        34
      ],
      "matrix": [
        -0.5762997865676572,
        0.0,
        1.8778231192015825e-07,
        0.0,
        0.0,
        0.406067818403244,
        0.0,
        0.0,
        -1.8778231192015825e-07,
        -0.0,
        -0.5762997865676572,
        0.0,
        6.715916156768799,
        -5.244719505310059,
        4.107214450836182,
        1.0
      ],
      "name": "Circle.019_15"
    },
    {
      "mesh": 15,
      "name": "Object_34"
    },
    {
      "children": [
        36
      ],
      "matrix": [
        -0.3524350523948482,
        0.0,
        1.1483791025134024e-07,
        0.0,
        0.0,
        0.08664380013942719,
        0.0,
        0.0,
        -1.1483791025134024e-07,
        -0.0,
        -0.3524350523948482,
        0.0,
        6.703178405761719,
        -5.004030227661133,
        -4.164506912231445,
        1.0
      ],
      "name": "Circle.018_16"
    },
    {
      "mesh": 16,
      "name": "Object_36"
    },
    {
      "children": [
        38
      ],
      "matrix": [
        0.5340439677238464,
        0.0,
        0.0,
        0.0,
        0.0,
        0.5340439677238464,
        0.0,
        0.0,
        0.0,
        0.0,
        0.5340439677238464,
        0.0,
        6.698251247406006,
        -5.294457912445068,
        -4.165622234344482,
        1.0
      ],
      "name": "Circle.017_17"
    },
    {
      "mesh": 17,
      "name": "Object_38"
    },
    {
      "children": [
        40
      ],
      "matrix": [
        -0.5762997865676572,
        0.0,
        1.8778231192015825e-07,
        0.0,
        0.0,
        0.406067818403244,
        0.0,
        0.0,
        -1.8778231192015825e-07,
        -0.0,
        -0.5762997865676572,
        0.0,
        6.705930709838867,
        -5.244719505310059,
        -4.163052082061768,
        1.0
      ],
      "name": "Circle.016_18"
    },
    {
      "mesh": 18,
      "name": "Object_40"
    },
    {
      "children": [
        42
      ],
      "matrix": [
        -0.3524350523948482,
        0.0,
        1.1483791025134024e-07,
        0.0,
        -0.0,
        0.08664380013942719,
        0.0,
        0.0,
        -1.1483791025134024e-07,
        -0.0,
        -0.3524350523948482,
        0.0,
        -6.66755485534668,
        -5.004030227661133,
        -4.164506912231445,
        1.0
      ],
      "name": "Circle.015_19"
    },
    {
      "mesh": 19,
      "name": "Object_42"
    },
    {
      "children": [
        44
      ],
      "matrix": [
        0.5340439677238464,
        0.0,
        0.0,
        0.0,
        0.0,
        0.5340439677238464,
        0.0,
        0.0,
        0.0,
        0.0,
        0.5340439677238464,
        0.0,
        -6.672482013702393,
        -5.294457912445068,
        -4.165622234344482,
        1.0
      ],
      "name": "Circle.014_20"
    },
    {
      "mesh": 20,
      "name": "Object_44"
    },
    {
      "children": [
        46
      ],
      "matrix": [
        -0.5762997865676572,
        0.0,
        1.8778231192015825e-07,
        0.0,
        -0.0,
        0.406067818403244,
        0.0,
        0.0,
        -1.8778231192015825e-07,
        -0.0,
        -0.5762997865676572,
        0.0,
        -6.664802551269531,
        -5.244719505310059,
        -4.163052082061768,
        1.0
      ],
      "name": "Circle.013_21"
    },
    {
      "mesh": 21,
      "name": "Object_46"
    },
    {
      "children": [
        48
      ],
      "matrix": [
        -0.3524350523948482,
        0.0,
        1.1483791025134024e-07,
        0.0,
        -0.0,
        0.08664380013942719,
        0.0,
        0.0,
        -1.1483791025134024e-07,
        -0.0,
        -0.3524350523948482,
        0.0,
        -6.66755485534668,
        -5.004030227661133,
        4.140258312225342,
        1.0
      ],
      "name": "Circle.011_22"
    },
    {
      "mesh": 22,
      "name": "Object_48"
    },
    {
      "children": [
        50
      ],
      "matrix": [
        1.0,
        0.0,
        0.0,
        0.0,
        0.0,
        1.0,
        0.0,
        0.0,
        0.0,
        0.0,
        1.0,
        0.0,
        -6.602197647094727,
        -7.435365676879883,
        4.201128959655762,
        1.0
      ],
      "name": "Circle.010_23"
    },
    {
      "mesh": 23,
      "name": "Object_50"
    },
    {
      "children": [
        52
      ],
      "matrix": [
        0.5340439677238464,
        0.0,
        0.0,
        0.0,
        0.0,
        0.5340439677238464,
        0.0,
        0.0,
        0.0,
        0.0,
        0.5340439677238464,
        0.0,
        -6.672482013702393,
        -5.294457912445068,
        4.139142990112305,
        1.0
      ],
      "name": "Circle.009_24"
    },
    {
      "mesh": 24,
      "name": "Object_52"
    },
    {
      "children": [
        54
      ],
      "matrix": [
        -0.5762997865676572,
        0.0,
        1.8778231192015825e-07,
        0.0,
        -0.0,
        0.406067818403244,
        0.0,
        0.0,
        -1.8778231192015825e-07,
        -0.0,
        -0.5762997865676572,
        0.0,
        -6.664802551269531,
        -5.244719505310059,
        4.1417131423950195,
        1.0
      ],
      "name": "Circle.008_25"
    },
    {
      "mesh": 25,
      "name": "Object_54"
    },
    {
      "children": [
        56
      ],
      "matrix": [
        1.8314791917800903,
        0.0,
        0.0,
        0.0,
        0.0,
        1.8314791917800903,
        0.0,
        0.0,
        0.0,
        0.0,
        1.8314791917800903,
        0.0,
        0.0,
        0.6626709699630737,
        0.0,
        1.0
      ],
      "name": "Circle.002_26"
    },
    {
      "mesh": 26,
      "name": "Object_56"
    },
    {
      "children": [
        58
      ],
      "matrix": [
        2.542670249938965,
        0.0,
        0.0,
        0.0,
        0.0,
        2.2387497425079346,
        0.0,
        0.0,
        0.0,
        0.0,
        2.542670249938965,
        0.0,
        0.15733221173286438,
        -5.04339599609375,
        0.03371404856443405,
        1.0
      ],
      "name": "Circle_27"
    },
    {
      "mesh": 27,
      "name": "Object_58"
    },
    {
      "children": [
        60
      ],
      "matrix": [
        0.7382374136815394,
        0.0,
        0.679410665145167,
        0.0,
        -0.0,
        1.0,
        0.0,
        0.0,
        -0.6771818907380917,
        0.0,
        0.7358156609208473,
        0.0,
        -0.2647647261619568,
        8.19413948059082,
        -0.2552310824394226,
        1.0
      ],
      "name": "AYY MMM DEEE.001_28"
    },
    {
      "mesh": 28,
      "name": "Object_60"
    },
    {
      "children": [
        62
      ],
      "matrix": [
        -0.8651290903309484,
        0.0,
        -0.012995200310670632,
        0.0,
        0.0,
        1.3444252014160156,
        0.0,
        0.0,
        0.012995200310670632,
        0.0,
        -0.8651290903309484,
        0.0,
        5.454466342926025,
        -7.258674144744873,
        -5.205648899078369,
        1.0
      ],
      "name": "ATTACHEMTN POTIN FOR TOP TO BOTTM.008_29"
    },
    {
      "mesh": 29,
      "name": "Object_62"
    },
    {
      "children": [
        64
      ],
      "matrix": [
        -0.8651290903309484,
        0.0,
        -0.012995200310670632,
        0.0,
        0.0,
        1.1464401483535767,
        0.0,
        0.0,
        0.012995200310670632,
        0.0,
        -0.8651290903309484,
        0.0,
        5.454466342926025,
        -6.386691570281982,
        -5.205648899078369,
        1.0
      ],
      "name": "ATTACHEMTN POTIN FOR TOP TO BOTTM.007_30"
    },
    {
      "mesh": 30,
      "name": "Object_64"
    },
    {
      "children": [
        66
      ],
      "matrix": [
        -0.012995008806448707,
        0.0,
        0.8651290932075332,
        0.0,
        -0.0,
        1.3444252014160156,
        0.0,
        0.0,
        -0.8651290932075332,
        -0.0,
        -0.012995008806448707,
        0.0,
        -5.418824672698975,
        -7.258674621582031,
        -5.561587810516357,
        1.0
      ],
      "name": "ATTACHEMTN POTIN FOR TOP TO BOTTM.006_31"
    },
    {
      "mesh": 31,
      "name": "Object_66"
    },
    {
      "children": [
        68
      ],
      "matrix": [
        -0.012995008806448707,
        0.0,
        0.8651290932075332,
        0.0,
        -0.0,
        1.1464401483535767,
        0.0,
        0.0,
        -0.8651290932075332,
        -0.0,
        -0.012995008806448707,
        0.0,
        -5.418824672698975,
        -6.386692047119141,
        -5.561587810516357,
        1.0
      ],
      "name": "ATTACHEMTN POTIN FOR TOP TO BOTTM.005_32"
    },
    {
      "mesh": 32,
      "name": "Object_68"
    },
    {
      "children": [
        70
      ],
      "matrix": [
        0.012995008806448707,
        0.0,
        -0.8651290932075333,
        0.0,
        0.0,
        1.3444252014160156,
        0.0,
        0.0,
        0.8651290932075333,
        0.0,
        0.012995008806448707,
        0.0,
        5.19142484664917,
        -7.258674621582031,
        5.610537528991699,
        1.0
      ],
      "name": "ATTACHEMTN POTIN FOR TOP TO BOTTM.004_33"
    },
    {
      "mesh": 33,
      "name": "Object_70"
    },
    {
      "children": [
        72
      ],
      "matrix": [
        0.012995008806448707,
        0.0,
        -0.8651290932075333,
        0.0,
        0.0,
        1.1464401483535767,
        0.0,
        0.0,
        0.8651290932075333,
        0.0,
        0.012995008806448707,
        0.0,
        5.19142484664917,
        -6.386692047119141,
        5.610537528991699,
        1.0
      ],
      "name": "ATTACHEMTN POTIN FOR TOP TO BOTTM.003_34"
    },
    {
      "mesh": 34,
      "name": "Object_72"
    },
    {
      "children": [
        74
      ],
      "matrix": [
        0.8651290928482275,
        0.0,
        0.012995032726833014,
        0.0,
        -0.0,
        1.3444252014160156,
        0.0,
        0.0,
        -0.012995032726833014,
        -0.0,
        0.8651290928482275,
        0.0,
        -5.600472927093506,
        -7.2586750984191895,
        5.327787399291992,
        1.0
      ],
      "name": "ATTACHEMTN POTIN FOR TOP TO BOTTM.002_35"
    },
    {
      "mesh": 35,
      "name": "Object_74"
    },
    {
      "children": [
        76
      ],
      "matrix": [
        0.8651290928482275,
        0.0,
        0.012995032726833014,
        0.0,
        -0.0,
        1.1464401483535767,
        0.0,
        0.0,
        -0.012995032726833014,
        -0.0,
        0.8651290928482275,
        0.0,
        -5.600472927093506,
        -6.386692523956299,
        5.327787399291992,
        1.0
      ],
      "name": "ATTACHEMTN POTIN FOR TOP TO BOTTM_36"
    },
    {
      "mesh": 36,
      "name": "Object_76"
    },
    {
      "children": [
        78
      ],
      "matrix": [
        7.559370994567871,
        0.0,
        0.0,
        0.0,
        0.0,
        7.534572601318359,
        0.0,
        0.0,
        0.0,
        0.0,
        7.534572601318359,
        0.0,
        0.06531882286071777,
        0.0,
        0.0,
        1.0
      ],
      "name": "amd little bulge.001_37"
    },
    {
      "mesh": 37,
      "name": "Object_78"
    }
  ],
  "samplers": [
    {
      "magFilter": 9729,
      "minFilter": 9987,
      "wrapS": 10497,
      "wrapT": 10497
    }
  ],
  "scene": 0,
  "scenes": [
    {
      "name": "Sketchfab_Scene",
      "nodes": [
        0
      ]
    }
  ],
  "textures": [
    {
      "sampler": 0,
      "source": 0
    },
    {
      "sampler": 0,
      "source": 1
    },
    {
      "sampler": 0,
      "source": 2
    },
    {
      "sampler": 0,
      "source": 3
    },
    {
      "sampler": 0,
      "source": 4
    },
    {
      "sampler": 0,
      "source": 5
    }
  ]
}
