{
  "accessors": [
    {
      "bufferView": 2,
      "componentType": 5126,
      "count": 5320,
      "max": [
        6.034097194671631,
        7.294103145599365,
        7.135142803192139
      ],
      "min": [
        -6.002159118652344,
        -8.179460525512695,
        0.04049599915742874
      ],
      "type": "VEC3"
    },
    {
      "bufferView": 2,
      "byteOffset": 63840,
      "componentType": 5126,
      "count": 5320,
      "max": [
        1.0,
        1.0,
        1.0
      ],
      "min": [
        -1.0,
        -1.0,
        -1.0
      ],
      "type": "VEC3"
    },
    {
      "bufferView": 3,
      "componentType": 5126,
      "count": 5320,
      "max": [
        1.0,
        1.0,
        1.0,
        1.0
      ],
      "min": [
        -1.0,
        -1.0,
        -1.0,
        -1.0
      ],
      "type": "VEC4"
    },
    {
      "bufferView": 1,
      "componentType": 5126,
      "count": 5320,
      "max": [
        0.9886249899864197,
        0.9948570132255554
      ],
      "min": [
        0.007646999787539244,
        0.0031270000617951155
      ],
      "type": "VEC2"
    },
    {
      "bufferView": 0,
      "componentType": 5125,
      "count": 21090,
      "type": "SCALAR"
    },
    {
      "bufferView": 2,
      "byteOffset": 127680,
      "componentType": 5126,
      "count": 10646,
      "max": [
        4.552618026733398,
        7.3227009773254395,
        5.833327770233154
      ],
      "min": [
        -4.098844051361084,
        -7.91786003112793,
        1.5658620595932007
      ],
      "type": "VEC3"
    },
    {
      "bufferView": 2,
      "byteOffset": 255432,
      "componentType": 5126,
      "count": 10646,
      "max": [
        1.0,
        1.0,
        1.0
      ],
      "min": [
        -1.0,
        -1.0,
        -1.0
      ],
      "type": "VEC3"
    },
    {
      "bufferView": 3,
      "byteOffset": 85120,
      "componentType": 5126,
      "count": 10646,
      "max": [
        1.0,
        1.0,
        1.0,
        1.0
      ],
      "min": [
        -1.0,
        -1.0,
        -1.0,
        -1.0
      ],
      "type": "VEC4"
    },
    {
      "bufferView": 1,
      "byteOffset": 42560,
      "componentType": 5126,
      "count": 10646,
      "max": [
        0.992214024066925,
        0.9839100241661072
      ],
      "min": [
        0.8213840126991272,
        0.7393149733543396
      ],
      "type": "VEC2"
    },
    {
      "bufferView": 0,
      "byteOffset": 84360,
      "componentType": 5125,
      "count": 28485,
      "type": "SCALAR"
    }
  ],
  "asset": {
    "extras": {
      "author": "Igor.Jop (https://sketchfab.com/Igor.Jop)",
      "license": "CC-BY-4.0 (http://creativecommons.org/licenses/by/4.0/)",
      "source": "https://sketchfab.com/3d-models/m1000-inspired-by-corsair-hx1000-free-6d122273398b446a876600401ba08b55",
      "title": "M1000 inspired by Corsair HX1000 [Free]"
    },
    "generator": "Sketchfab-16.31.0",
    "version": "2.0"
  },
  "bufferViews": [
    {
      "buffer": 0,
      "byteLength": 198300,
      "name": "floatBufferViews",
      "target": 34963
    },
    {
      "buffer": 0,
      "byteLength": 127728,
      "byteOffset": 198300,
      "byteStride": 8,
      "name": "floatBufferViews",
      "target": 34962
    },
    {
      "buffer": 0,
      "byteLength": 383184,
      "byteOffset": 326028,
      "byteStride": 12,
      "name": "floatBufferViews",
      "target": 34962
    },
    {
      "buffer": 0,
      "byteLength": 255456,
      "byteOffset": 709212,
      "byteStride": 16,
      "name": "floatBufferViews",
      "target": 34962
    }
  ],
  "buffers": [
    {
      "byteLength": 964668,
      "uri": "scene.bin"
    }
  ],
  "images": [
    {
      "uri": "textures/phong5_baseColor.png"
    },
    {
      "uri": "textures/phong5_metallicRoughness.png"
    },
    {
      "uri": "textures/phong5_normal.png"
    },
    {
      "uri": "textures/phong6_baseColor.png"
    },
    {
      "uri": "textures/phong6_metallicRoughness.png"
    },
    {
      "uri": "textures/phong6_normal.png"
    }
  ],
  "materials": [
    {
      "alphaMode": "BLEND",
      "doubleSided": true,
      "name": "phong5",
      "normalTexture": {
        "index": 2
      },
      "pbrMetallicRoughness": {
        "baseColorTexture": {
          "index": 0
        },
        "metallicRoughnessTexture": {
          "index": 1
        }
      }
    },
    {
      "doubleSided": true,
      "name": "phong6",
      "normalTexture": {
        "index": 5
      },
      "pbrMetallicRoughness": {
        "baseColorTexture": {
          "index": 3
        },
        "metallicRoughnessTexture": {
          "index": 4
        }
      }
    }
  ],
  "meshes": [
    {
      "name": "Object_0",
      "primitives": [
        {
          "attributes": {
            "NORMAL": 1,
            "POSITION": 0,
            "TANGENT": 2,
            "TEXCOORD_0": 3
          },
          "indices": 4,
          "material": 0,
          "mode": 4
        }
      ]
    },
    {
      "name": "Object_1",
      "primitives": [
        {
          "attributes": {
            "NORMAL": 6,
            "POSITION": 5,
            "TANGENT": 7,
            "TEXCOORD_0": 8
          },
          "indices": 9,
          "material": 1,
          "mode": 4
        }
      ]
    }
  ],
  "nodes": [
    {
      "children": [
        1
      ],
      "matrix": [
        1.0,
        0.0,
        0.0,
        0.0,
        0.0,
        2.220446049250313e-16,
        -1.0,
        0.0,
        0.0,
        1.0,
        2.220446049250313e-16,
        0.0,
        0.0,
        0.0,
        0.0,
        1.0
      ],
      "name": "Sketchfab_model"
    },
    {
      "children": [
        2,
        3
      ],
      "name": "CorsairHX1000.obj.cleaner.materialmerger.gles"
    },
    {
      "mesh": 0,
      "name": "Object_2"
    },
    {
      "mesh": 1,
      "name": "Object_3"
    }
  ],
  "samplers": [
    {
      "magFilter": 9729,
      "minFilter": 9987,
      "wrapS": 10497,
      "wrapT": 10497
    }
  ],
  "scene": 0,
  "scenes": [
    {
      "name": "Sketchfab_Scene",
      "nodes": [
        0
      ]
    }
  ],
  "textures": [
    {
      "sampler": 0,
      "source": 0
    },
    {
      "sampler": 0,
      "source": 1
    },
    {
      "sampler": 0,
      "source": 2
    },
    {
      "sampler": 0,
      "source": 3
    },
    {
      "sampler": 0,
      "source": 4
    },
    {
      "sampler": 0,
      "source": 5
    }
  ]
}
